<svg width="391" height="303" viewBox="0 0 391 303" fill="none" xmlns="http://www.w3.org/2000/svg">
<path d="M27.0262 214.27L20.7674 206.674L28.9429 211.274C27.3783 207.832 25.8136 204.389 24.2489 200.947L35.984 206.791L29.1464 196.308L42.2976 203.693C43.3407 200.444 44.3838 197.194 45.4269 193.945L51.3102 199.163C51.2387 195.663 52.4051 192.249 54.6038 189.525L60.7844 198.42C61.2459 195.909 61.6997 193.397 62.1613 190.878C62.1416 189.599 62.3728 188.329 62.8419 187.139L62.1613 190.878C62.2317 196.8 67.4656 202.559 73.4584 204.381C80.7185 206.595 88.5028 204.827 95.9742 203.45C122.762 198.514 150.199 198.835 177.432 199.171L271.908 200.337C269.988 195.032 269.611 189.292 270.82 183.782C274.659 188.294 278.503 192.803 282.352 197.309C281.732 193.46 281.119 189.611 280.514 185.762L289.511 195.549L289.159 185.222L299.665 198.068L297.318 185.629C302.31 192.279 310.524 195.909 318.747 197.113C326.969 198.318 335.356 197.364 343.618 196.401C342.215 190.143 340.817 183.871 339.424 177.586L351.253 195.541C350.33 189.804 349.412 184.066 348.499 178.329L360.501 194.422C359.979 189.399 359.442 184.377 358.889 179.354C360.116 185.106 362.589 190.519 366.133 195.212C366.978 190.268 367.821 185.313 368.66 180.348L369.693 196.48C371.649 190.56 373.607 184.635 375.569 178.705C375.245 184.14 374.927 189.574 374.614 195.009C378.667 194.516 385.356 190.018 387.499 192.427C387.382 191.754 387.265 191.082 387.155 190.401C381.64 172.11 368.684 149.961 351.433 131.193C340.371 121.101 328.745 111.674 315.578 104.664C296.646 94.5871 273.762 89.9635 253.546 97.1141C241.459 101.386 231.038 109.553 218.92 113.731C211.717 116.171 204.101 117.159 196.514 116.636C188.926 116.114 181.518 114.092 174.717 110.688C133.949 92.2166 130.288 51.2296 67.9428 72.4468C67.0353 72.9084 66.1356 73.3856 65.2516 73.8706C50.5802 81.937 37.6122 92.7717 27.0653 105.775C7.89788 133.258 -2.72636 172.383 0.606425 209.208C0.700307 209.694 0.802011 210.179 0.911539 210.648C7.92135 209.326 19.9851 212.604 27.0262 214.27Z" fill="#F5F5F5"/>
<path d="M389.502 200.298C386.827 200.579 21.2916 238.14 6.15327 221.875C3.67323 219.223 2.00683 215.319 0.950669 210.648H0.786377C3.36029 236.168 12.678 260.484 30.5702 278.923C36.9744 282.893 43.7312 286.264 50.7547 288.992C132.948 314.755 408.2 312.65 389.502 200.298Z" fill="#E0E0E0"/>
<path d="M389.471 200.133C389.095 197.927 388.618 195.69 388.024 193.405C387.927 193.053 387.753 192.727 387.515 192.451C387.966 195.059 388.62 197.627 389.471 200.133Z" fill="#E0E0E0"/>
<path d="M62.1066 190.878L62.7873 187.139C62.3182 188.329 62.0869 189.599 62.1066 190.878Z" fill="#E0E0E0"/>
<path d="M374.63 195.009C374.943 189.58 375.261 184.145 375.584 178.705C373.628 184.646 371.665 190.571 369.693 196.48L368.59 180.387C367.745 185.342 366.903 190.297 366.063 195.252C362.518 190.559 360.045 185.146 358.819 179.394C359.34 184.416 359.877 189.439 360.43 194.462L348.429 178.369C349.342 184.106 350.26 189.843 351.183 195.58L339.354 177.625C340.752 183.884 342.149 190.156 343.547 196.441C335.286 197.403 326.907 198.358 318.676 197.153C310.446 195.948 302.247 192.318 297.248 185.668L299.595 198.107L289.112 185.222L289.464 195.549L280.467 185.762C281.077 189.611 281.69 193.46 282.305 197.309C278.456 192.803 274.612 188.294 270.774 183.783C269.564 189.293 269.941 195.033 271.861 200.337L177.385 199.171C150.152 198.835 122.715 198.514 95.9274 203.451C88.456 204.828 80.6716 206.58 73.4115 204.382C67.4187 202.559 62.1848 196.801 62.1144 190.878C61.6528 193.398 61.1991 195.909 60.7375 198.42L54.557 189.525C52.3638 192.252 51.203 195.665 51.2789 199.163L45.3957 193.945C44.3526 197.195 43.3094 200.444 42.2663 203.693L29.1151 196.308L35.9528 206.791L24.2176 200.947C25.7823 204.389 27.347 207.832 28.9117 211.274L20.7362 206.674L26.995 214.271C19.9539 212.604 7.92922 209.326 0.935059 210.648C1.99122 215.342 3.65762 219.254 6.13765 221.875C21.2995 238.14 386.834 200.579 389.487 200.298C389.483 200.235 389.483 200.173 389.487 200.11C388.635 197.604 387.981 195.035 387.531 192.427C385.34 190.018 378.682 194.516 374.63 195.009Z" fill="#E0E0E0"/>
<path d="M345.018 83.8221C345.018 83.8221 339.37 81.4751 335.575 94.6498C331.781 107.824 330.803 115.186 330.803 115.186C330.803 115.186 329.676 118.018 327.674 116.704C325.671 115.39 322.361 111.228 319.592 112.605C316.822 113.982 316.376 117.651 317.918 122.525C319.459 127.399 322.455 138.172 322.721 139.189C322.987 140.206 322.721 141.7 321.157 141.027C319.592 140.354 310.149 133.204 307.012 137.898C303.875 142.592 310.415 155.477 311.103 156.893C311.792 158.309 311.62 159.013 310.986 159.522C310.352 160.03 307.387 157.316 304.61 155.391C301.833 153.466 298.273 151.706 296.685 154.57C295.097 157.433 296.427 167.791 309.375 182.523L315.829 188.961L324.701 186.724C343.391 180.794 349.869 172.603 349.994 169.332C350.119 166.062 346.16 165.726 342.788 165.945C339.417 166.164 335.481 166.962 335.192 166.195C334.902 165.428 335.121 164.748 336.444 163.848C337.766 162.948 350.017 155.328 349.743 149.688C349.47 144.047 337.664 145.299 336.005 145.08C334.347 144.861 334.902 143.39 335.622 142.733C336.342 142.076 344.502 134.322 348.343 130.943C352.184 127.563 353.733 124.308 352.028 121.555C350.322 118.801 345.417 120.835 342.992 120.897C340.567 120.96 341.052 117.964 341.052 117.964C341.052 117.964 344.017 111.149 347.569 97.9121C351.12 84.6749 344.909 83.7674 344.909 83.7674" fill="#EBEBEB"/>
<path d="M341.607 95.6196C341.595 95.7147 341.577 95.8088 341.552 95.9013C341.505 96.1047 341.435 96.3785 341.357 96.6836C341.161 97.466 340.895 98.4752 340.574 99.813C339.87 102.543 338.822 106.479 337.507 111.337C334.871 121.054 331.116 134.44 326.907 149.21C322.698 163.981 318.927 177.375 316.181 187.06C314.827 191.887 313.74 195.807 312.973 198.545C312.598 199.875 312.3 200.892 312.089 201.674C311.995 202.018 311.917 202.284 311.854 202.457C311.792 202.629 311.76 202.73 311.76 202.73C311.765 202.646 311.778 202.562 311.8 202.48C311.854 202.277 311.917 202.003 312.003 201.698C312.191 200.947 312.452 199.904 312.785 198.568C313.489 195.846 314.538 191.911 315.852 187.052C318.489 177.328 322.252 163.942 326.461 149.163L337.187 111.321C338.532 106.494 339.62 102.575 340.386 99.8365C340.762 98.5065 341.059 97.4894 341.271 96.7071C341.372 96.3707 341.45 96.0969 341.505 95.9247C341.526 95.8191 341.56 95.7166 341.607 95.6196Z" fill="#E0E0E0"/>
<path d="M323.887 118.668C324.36 119.337 324.769 120.05 325.107 120.796C325.804 122.142 326.672 124.027 327.65 126.132L330.044 131.53C330.409 132.263 330.723 133.021 330.983 133.799C330.5 133.133 330.091 132.416 329.762 131.663C329.082 130.309 328.198 128.416 327.251 126.311C326.304 124.207 325.506 122.4 324.826 120.929C324.449 120.203 324.135 119.447 323.887 118.668Z" fill="#E0E0E0"/>
<path d="M331.828 133.799C331.773 133.689 335.575 131.639 340.316 129.23C345.057 126.82 348.922 124.942 349.008 125.052C349.094 125.161 345.261 127.203 340.52 129.621C335.779 132.038 331.882 133.9 331.828 133.799Z" fill="#E0E0E0"/>
<path d="M324.317 156.189C325.115 155.943 325.931 155.76 326.758 155.642C328.276 155.337 330.357 154.914 332.649 154.382C334.941 153.85 336.999 153.31 338.485 152.911C339.281 152.658 340.094 152.462 340.918 152.325C340.168 152.698 339.382 152.995 338.571 153.209C337.101 153.678 335.043 154.273 332.743 154.773C330.443 155.274 328.338 155.681 326.805 155.908C325.987 156.085 325.154 156.179 324.317 156.189Z" fill="#E0E0E0"/>
<path d="M314.147 144.086C314.741 144.582 315.289 145.132 315.782 145.729C316.744 146.785 318.051 148.264 319.474 149.907C320.898 151.55 322.166 153.036 323.073 154.163C323.594 154.736 324.06 155.357 324.466 156.017C323.872 155.52 323.327 154.967 322.839 154.366C321.876 153.318 320.562 151.839 319.138 150.196C317.714 148.553 316.447 147.067 315.547 145.932C315.025 145.361 314.556 144.743 314.147 144.086Z" fill="#E0E0E0"/>
<path d="M305.017 163.019C305.762 163.673 306.457 164.382 307.098 165.139C308.334 166.485 310.024 168.362 311.87 170.451C313.716 172.54 315.367 174.457 316.564 175.857C317.239 176.591 317.856 177.376 318.41 178.204C317.667 177.551 316.974 176.842 316.337 176.084C315.093 174.739 313.403 172.861 311.565 170.764C309.726 168.668 308.068 166.766 306.871 165.366C306.198 164.628 305.579 163.844 305.017 163.019Z" fill="#E0E0E0"/>
<path d="M318.168 177.727C319.175 177.4 320.202 177.139 321.243 176.945C323.144 176.491 325.772 175.873 328.659 175.114C331.546 174.355 334.136 173.62 336.029 173.072L338.259 172.438C338.528 172.342 338.81 172.281 339.096 172.258C338.852 172.408 338.589 172.524 338.313 172.603C337.805 172.798 337.054 173.064 336.123 173.385C334.261 174.003 331.671 174.801 328.777 175.552C325.882 176.303 323.23 176.89 321.305 177.265C320.343 177.445 319.561 177.586 319.021 177.664C318.741 177.725 318.454 177.746 318.168 177.727Z" fill="#E0E0E0"/>
<path d="M269.365 171.273C283.447 161.447 286.577 143.218 286.053 126.836C285.959 124.098 286.264 121.219 284.965 118.817C283.666 116.415 280.623 114.78 278.174 115.93C276.148 116.884 275.256 119.247 274.122 121.203C272.603 123.808 270.379 125.932 267.707 127.329C265.97 128.236 263.795 128.784 262.089 127.837C259.742 126.539 259.453 123.276 259.468 120.554C259.51 115.484 259.544 110.414 259.57 105.345C259.57 102.63 259.57 99.8684 258.749 97.271C257.927 94.6737 256.034 92.2875 253.444 91.5599C250.855 90.8323 247.655 92.3423 247.107 94.9944C247.007 96.1206 246.981 97.2523 247.029 98.382C246.959 99.5085 246.427 100.729 245.355 101.073C244.283 101.417 243.18 100.619 242.366 99.8215C239.566 97.0755 237.672 93.5627 235.873 90.0187C234.074 86.4747 232.368 82.8994 229.818 79.903C227.267 76.9066 223.747 74.5361 219.851 74.317C215.954 74.098 211.808 76.4998 210.822 80.3255C209.837 84.1511 212.074 88.0472 214.507 91.1531C218.119 95.7573 222.377 99.8153 227.15 103.201C228.078 103.716 228.819 104.513 229.262 105.478C229.857 107.293 228.136 109.092 226.344 109.687C224.318 110.367 222.119 110.156 219.999 110.407C217.879 110.657 215.579 111.588 214.773 113.591C213.662 116.376 215.986 119.286 218.278 121.195C222.858 125.021 228.064 128.028 233.667 130.083C235.67 130.818 237.774 131.459 239.394 132.86C241.013 134.26 241.975 136.717 241.005 138.634C240.035 140.55 237.524 141.161 235.427 140.769C233.33 140.378 231.461 139.205 229.458 138.493C225.718 137.085 220.891 137.343 218.505 140.574C216.94 142.694 216.792 145.651 217.59 148.186C218.503 150.678 219.904 152.963 221.713 154.906C227.705 161.947 235.372 167.596 244.048 170.6C252.725 173.604 260.752 174.418 269.373 171.273" fill="#EBEBEB"/>
<path d="M214.789 76.5933C214.869 76.6879 214.958 76.7744 215.055 76.8514L215.837 77.5712C216.549 78.1971 217.605 79.1359 218.92 80.3642C222.658 83.836 226.131 87.5835 229.309 91.5752C231.335 94.0943 233.44 96.9499 235.646 100.056C237.852 103.162 240.168 106.51 242.484 110.109C244.937 113.859 247.183 117.74 249.212 121.735C250.26 123.816 251.191 125.991 252.146 128.205C253.1 130.419 254.055 132.68 255.033 134.956C258.751 143.494 261.987 152.233 264.726 161.133C266.93 168.416 268.449 175.889 269.263 183.454C269.79 188.559 269.874 193.7 269.514 198.819C269.373 200.626 269.232 202.034 269.107 202.981C269.052 203.435 269.013 203.763 268.982 204.061C268.974 204.186 268.974 204.311 268.982 204.436C268.982 204.436 267.214 220.865 269.06 204.068C269.107 203.803 269.162 203.45 269.24 202.997C269.396 202.05 269.569 200.65 269.741 198.835C270.171 193.702 270.14 188.541 269.647 183.415C268.863 175.821 267.351 168.32 265.133 161.016C262.417 152.084 259.191 143.315 255.471 134.753C254.495 132.474 253.531 130.226 252.576 128.009C251.622 125.795 250.683 123.597 249.619 121.508C247.581 117.501 245.324 113.61 242.859 109.851C240.512 106.252 238.165 102.911 235.975 99.8133C233.784 96.7152 231.625 93.8674 229.575 91.3483C226.367 87.3628 222.846 83.64 219.045 80.2155C217.699 79.0029 216.627 78.0954 215.915 77.493L215.07 76.8123C214.987 76.7272 214.892 76.6535 214.789 76.5933Z" fill="#E0E0E0"/>
<path d="M249.47 121.492C249.598 121.113 249.687 120.723 249.736 120.326C249.877 119.544 250.049 118.488 250.245 117.127C250.628 114.42 251.027 110.664 251.457 106.518C251.888 102.372 252.341 98.6241 252.772 95.9329C252.975 94.5872 253.155 93.492 253.288 92.7409C253.382 92.3538 253.434 91.9578 253.445 91.5596C253.289 91.9266 253.173 92.3096 253.1 92.7018C252.905 93.445 252.678 94.5247 252.42 95.8312C251.903 98.5224 251.395 102.27 250.965 106.424C250.534 110.578 250.182 114.248 249.893 117.048C249.752 118.321 249.635 119.393 249.541 120.264C249.473 120.669 249.449 121.081 249.47 121.492Z" fill="#E0E0E0"/>
<path d="M214.5 114.952C214.957 115.055 215.423 115.113 215.892 115.124C216.792 115.202 218.09 115.312 219.686 115.499C222.894 115.844 227.299 116.477 232.134 117.385C236.968 118.292 241.303 119.325 244.424 120.146C245.989 120.553 247.241 120.929 248.109 121.156C248.551 121.31 249.007 121.423 249.47 121.492C249.055 121.272 248.617 121.096 248.164 120.968C247.311 120.663 246.067 120.256 244.518 119.802C241.389 118.887 237.07 117.807 232.227 116.884C228.087 116.093 223.909 115.511 219.71 115.139C218.098 114.999 216.792 114.944 215.884 114.928C215.423 114.897 214.96 114.904 214.5 114.952Z" fill="#E0E0E0"/>
<path d="M264.703 160.351C264.805 160.224 264.887 160.081 264.945 159.929L265.548 158.661C266.056 157.558 266.76 155.946 267.605 153.967C269.287 149.962 271.446 144.352 273.747 138.132C276.047 131.913 278.159 126.272 279.724 122.235C280.506 120.272 281.148 118.66 281.633 117.455C281.836 116.939 282.008 116.508 282.141 116.156C282.215 116.009 282.265 115.85 282.29 115.687C282.193 115.82 282.114 115.964 282.055 116.117L281.453 117.377C280.936 118.48 280.232 120.092 279.395 122.071C277.705 126.077 275.546 131.686 273.254 137.906C270.961 144.125 268.857 149.75 267.253 153.787L265.344 158.56C265.141 159.084 264.969 159.514 264.828 159.866C264.767 160.022 264.725 160.185 264.703 160.351Z" fill="#E0E0E0"/>
<path d="M218.231 145.369C218.377 145.45 218.532 145.513 218.693 145.557L220.046 146.011L225.022 147.622C229.223 148.984 235.005 150.932 241.389 153.099C247.773 155.266 253.585 157.159 257.818 158.434C259.93 159.076 261.644 159.569 262.841 159.889L264.217 160.257C264.374 160.31 264.537 160.339 264.702 160.343C264.558 160.26 264.403 160.197 264.241 160.155L262.895 159.702L257.92 158.09C253.718 156.729 247.937 154.781 241.545 152.614C235.153 150.447 229.356 148.553 225.116 147.278C223.004 146.644 221.282 146.144 220.093 145.823L218.716 145.463C218.559 145.411 218.396 145.379 218.231 145.369Z" fill="#E0E0E0"/>
<path d="M247.248 37.0378H362.793C362.793 37.0378 352.575 18.4414 322.831 21.1483C294.431 23.7301 292.984 12.0027 278.542 10.5554C264.1 9.10806 252.06 20.1939 247.248 37.0378Z" fill="#F5F5F5"/>
<path d="M48.564 15.3359H115.165C115.165 15.3359 109.274 4.61776 92.1327 6.17463C75.7583 7.66891 74.9212 0.901623 66.597 0.0723373C58.2729 -0.756948 51.3335 5.61916 48.564 15.3359Z" fill="#F5F5F5"/>
<path d="M193.943 47.4256C199.363 42.0056 199.363 33.218 193.943 27.798C188.523 22.378 179.735 22.378 174.315 27.798C168.895 33.218 168.895 42.0056 174.315 47.4256C179.735 52.8456 188.523 52.8456 193.943 47.4256Z" fill="#EBEBEB"/>
<path d="M183.98 71.954C183.785 71.954 183.62 67.26 183.62 61.5097C183.62 55.7595 183.785 51.0576 183.98 51.0576C184.176 51.0576 184.348 55.7517 184.348 61.5097C184.348 67.2678 184.184 71.954 183.98 71.954Z" fill="#EBEBEB"/>
<path d="M218.145 36.8267C218.145 37.0301 213.279 37.1944 207.271 37.1944C201.262 37.1944 196.396 37.0301 196.396 36.8267C196.396 36.6233 201.27 36.4668 207.271 36.4668C213.271 36.4668 218.145 36.6233 218.145 36.8267Z" fill="#EBEBEB"/>
<path d="M184.129 6.34668C184.332 6.34668 184.497 10.6339 184.497 15.9226C184.497 21.2112 184.332 25.4907 184.129 25.4907C183.926 25.4907 183.769 21.2034 183.769 15.9226C183.769 10.6418 183.933 6.34668 184.129 6.34668Z" fill="#EBEBEB"/>
<path d="M174.514 38.1333C174.514 38.3289 169.342 38.4932 162.966 38.4932C156.59 38.4932 151.419 38.3289 151.419 38.1333C151.419 37.9377 156.59 37.7656 162.966 37.7656C169.342 37.7656 174.514 37.9299 174.514 38.1333Z" fill="#EBEBEB"/>
<path d="M175.953 31.0686C175.813 31.2095 172.91 28.5338 169.476 25.0993C166.041 21.6649 163.358 18.7545 163.498 18.6137C163.639 18.4729 166.542 21.1485 169.984 24.583C173.426 28.0175 176.094 30.9278 175.953 31.0686Z" fill="#EBEBEB"/>
<path d="M203.296 18.8172C203.437 18.958 201.387 21.2737 198.712 23.9885C196.036 26.7032 193.752 28.7921 193.611 28.6825C193.47 28.573 195.52 26.226 198.195 23.5112C200.871 20.7965 203.148 18.6764 203.296 18.8172Z" fill="#EBEBEB"/>
<path d="M204.618 57.4573C204.478 57.5981 201.653 55.0085 198.321 51.6758C194.988 48.343 192.39 45.5187 192.539 45.417C192.688 45.3153 195.496 47.8657 198.798 51.1985C202.099 54.5313 204.72 57.3165 204.618 57.4573Z" fill="#EBEBEB"/>
<path d="M180.194 44.0403C180.335 44.1811 176.877 47.8816 172.472 52.3018C168.067 56.7221 164.375 60.1879 164.226 60.047C164.077 59.9062 167.543 56.2057 171.956 51.7855C176.368 47.3652 180.053 43.8995 180.194 44.0403Z" fill="#EBEBEB"/>
<path d="M93.0873 241.48L80.9297 202.144C80.9297 202.144 118.944 186.677 118.482 187.334C118.021 187.991 117.598 201.706 108.312 211.869C99.0253 222.031 99.4713 230.872 103.446 233.305C103.446 233.305 109.235 231.24 112.998 232.562C116.761 233.884 124.452 241.48 124.452 241.48H93.0873Z" fill="#F9D680"/>
<path opacity="0.3" d="M93.0873 241.48L80.9297 202.144C80.9297 202.144 118.944 186.677 118.482 187.334C118.021 187.991 117.598 201.706 108.312 211.869C99.0253 222.031 99.4713 230.872 103.446 233.305C103.446 233.305 109.235 231.24 112.998 232.562C116.761 233.884 124.452 241.48 124.452 241.48H93.0873Z" fill="black"/>
<path d="M281.734 217.83L279.833 200.04L273.66 193.859L243.063 185.386C241.738 185.017 240.331 185.075 239.042 185.551L226.031 190.331L219.639 189.236C219.639 189.236 212.019 187.288 208.319 185.206C206.875 184.41 205.326 183.82 203.719 183.454C169.608 175.286 144.417 154.789 144.417 154.789C140.935 151.307 128.966 131.952 122.253 129.151C115.541 126.351 101.364 127.587 101.364 127.587L98.3055 128.573L99.7138 127.9C97.3775 122.813 93.5687 118.545 88.7801 115.646C83.9915 112.748 78.4434 111.353 72.8534 111.642C67.2634 111.931 61.8887 113.891 57.4246 117.267C52.9604 120.644 49.6122 125.283 47.813 130.583C46.0997 135.637 45.8493 141.09 44.8557 146.332C43.3904 150.581 40.345 154.103 36.3517 156.166C31.4072 158.771 25.5475 159.233 20.0163 158.466C21.7631 160.352 23.8676 161.872 26.2073 162.937C28.5471 164.002 31.0752 164.591 33.6447 164.67C28.4891 168.652 22.1443 171.445 15.8699 173.33C19.3236 175.69 23.3956 176.98 27.5778 177.04C31.7601 177.1 35.8674 175.927 39.3872 173.667L33.0423 179.198C39.6453 180.207 46.0136 175.615 49.4716 169.904C52.9295 164.193 54.2282 157.488 56.0902 151.081C57.9522 144.673 60.6982 138.102 66.0651 134.143C70.6809 130.74 77.6829 130.153 82.0953 133.431C77.6595 134.487 68.5295 137.749 64.9542 147.216C62.3568 154.124 64.0075 159.679 58.0617 179.55C54.0013 193.132 32.2835 203.083 32.2835 203.083C32.2835 203.083 38.1745 207.362 41.2413 216.266C45.9354 229.917 48.9161 250.642 51.9751 253.896C51.9751 253.896 78.1836 257.894 82.9325 255.359C82.9325 255.359 71.6276 244.633 62.3568 244.633L59.2744 235.722C58.9067 232.953 56.5753 217.603 58.8675 217.267C59.7751 217.134 65.9086 217.392 70.5558 216.266C78.1836 214.435 94.1826 203.466 95.9507 201.307C95.9507 201.307 112.685 202.927 121.604 221.061C127.377 232.797 153.359 251.432 174.177 250.055L176.524 249.891C176.848 249.87 177.172 249.918 177.475 250.033C177.779 250.149 178.053 250.328 178.281 250.559C178.509 250.789 178.684 251.066 178.796 251.371C178.907 251.676 178.952 252.001 178.926 252.324L178.465 258.324C190.294 257.652 197.241 268.072 197.241 268.072C222.151 268.784 233.542 270.764 258.451 271.476C258.451 271.476 258.452 268.534 254.493 265.139C247.765 259.357 230.06 259.803 230.06 259.803C227.134 259.584 224.044 259.302 221.673 257.581C218.771 255.477 216.361 251.541 215.211 248.091L272.714 248.35L272.87 248.678L294.111 247.575C305.283 240.307 305.846 223.612 305.846 223.612L281.734 217.83Z" fill="#F9D680"/>
<g opacity="0.3">
<path d="M226.031 190.331C220.555 198.6 216.69 209.31 216.933 219.207C217.175 229.104 219.28 238.414 221.353 248.099H217.441C214.797 238.093 212.082 228.267 212.09 219.09C212.141 208.559 215.253 198.271 221.048 189.478" fill="#020080"/>
</g>
<path d="M75.4064 257.307C75.3438 257.354 74.7727 256.603 73.6539 255.594C70.71 252.954 66.9053 251.477 62.9514 251.439C61.4493 251.439 60.5183 251.604 60.5027 251.526C60.7048 251.43 60.9217 251.369 61.1442 251.346C61.7388 251.22 62.3438 251.149 62.9514 251.134C63.851 251.093 64.7523 251.141 65.6427 251.275C66.7348 251.453 67.8066 251.739 68.8425 252.128C69.8709 252.549 70.8539 253.073 71.7763 253.693C72.5279 254.19 73.2277 254.761 73.8651 255.398C74.302 255.818 74.7 256.276 75.0543 256.767C75.3047 257.088 75.4298 257.291 75.4064 257.307Z" fill="#263238"/>
<path d="M30.5466 202.293C30.5466 202.144 33.7386 202.832 37.6738 202.504C40.0394 202.235 42.3804 201.782 44.6758 201.15C44.0621 201.498 43.4042 201.761 42.7199 201.933C39.448 202.942 35.9924 203.209 32.6042 202.715C31.9023 202.669 31.21 202.527 30.5466 202.293Z" fill="#263238"/>
<path d="M30.5859 204.092C32.9457 204.7 35.3703 205.021 37.807 205.047C41.8673 204.992 44.9576 203.678 44.9967 203.826C44.3721 204.199 43.6978 204.48 42.9939 204.663C39.6188 205.692 36.0237 205.76 32.6122 204.859C31.9018 204.707 31.2186 204.449 30.5859 204.092Z" fill="#263238"/>
<path d="M32.98 205.712C32.98 205.586 35.374 206.205 38.3234 206.721C41.2728 207.237 43.6903 207.464 43.6824 207.589C41.8586 207.685 40.0302 207.537 38.2452 207.151C36.434 206.907 34.6634 206.423 32.98 205.712Z" fill="#263238"/>
<path d="M105.433 176.108C105.517 176.53 105.562 176.96 105.566 177.391C105.605 177.896 105.618 178.402 105.605 178.909C105.605 179.495 105.605 180.176 105.519 180.911C105.468 181.722 105.374 182.529 105.237 183.329C105.128 184.197 104.901 185.113 104.682 186.067C104.149 188.138 103.423 190.155 102.515 192.091C101.577 194.013 100.466 195.846 99.1974 197.568C98.5872 198.35 98.0239 199.085 97.4136 199.719C96.8793 200.33 96.3126 200.913 95.716 201.464C95.2366 201.931 94.7325 202.372 94.206 202.786C93.8264 203.118 93.4267 203.426 93.009 203.709C92.6709 203.978 92.3096 204.216 91.9294 204.421C91.8746 204.343 93.4002 203.31 95.4969 201.245C96.0211 200.72 96.5922 200.149 97.1398 199.484C97.6875 198.819 98.282 198.1 98.8766 197.325C100.11 195.613 101.196 193.799 102.123 191.903C103.016 189.991 103.741 188.004 104.29 185.965C104.517 185.019 104.752 184.127 104.877 183.266C105.002 182.406 105.135 181.616 105.214 180.919C105.503 177.954 105.339 176.116 105.433 176.108Z" fill="#263238"/>
<g opacity="0.3">
<path d="M134.208 142.24C128.825 147.364 126.016 156.212 127.565 163.488C128.381 167.128 130.098 170.505 132.559 173.308C135.019 176.112 138.144 178.253 141.648 179.534C147.007 181.443 153.383 181.388 157.537 185.23C159.947 187.444 161.214 190.604 163.092 193.28C165.57 196.691 169.009 199.286 172.97 200.732C176.931 202.179 181.232 202.411 185.326 201.401C193.447 199.241 199.823 191.019 200.589 182.624C195.824 181.424 191.131 179.956 186.531 178.228C180.518 175.871 174.632 173.202 168.897 170.232C164.758 168.018 149.972 158.927 147.445 157.073C143.596 154.249 134.208 142.24 134.208 142.24Z" fill="black"/>
</g>
<path d="M69.0146 155.728C69.0853 155.096 69.2433 154.477 69.4841 153.889C69.9876 152.45 70.6323 151.063 71.4086 149.751C72.1902 148.437 73.1024 147.205 74.1312 146.074C74.5271 145.577 74.9967 145.145 75.5238 144.791C74.1901 146.453 72.9445 148.185 71.792 149.977C69.9769 152.997 69.1476 155.775 69.0146 155.728Z" fill="#263238"/>
<path d="M71.886 157.761C71.9191 157.125 72.0483 156.497 72.2693 155.899C73.1695 152.95 74.7507 150.254 76.8852 148.029C77.2988 147.544 77.7843 147.124 78.3247 146.785C78.4264 146.887 76.2749 148.851 74.4912 151.91C72.7074 154.968 72.0268 157.801 71.886 157.761Z" fill="#263238"/>
<path d="M178.167 259.592C178.089 259.592 178.449 258.473 178.621 256.642C178.855 254.263 178.577 251.862 177.807 249.599C177.036 247.336 175.791 245.264 174.154 243.522C172.894 242.185 171.948 241.527 171.995 241.465C172.244 241.571 172.479 241.71 172.691 241.879C173.289 242.311 173.852 242.789 174.373 243.311C176.119 245.031 177.44 247.134 178.231 249.454C179.021 251.773 179.259 254.246 178.926 256.674C178.834 257.405 178.679 258.127 178.465 258.833C178.403 259.099 178.303 259.355 178.167 259.592Z" fill="#263238"/>
<path d="M180.624 256.634C180.711 255.583 180.86 254.538 181.07 253.505C181.135 252.456 181.255 251.412 181.43 250.375C181.806 252.493 181.533 254.675 180.647 256.634H180.624Z" fill="#263238"/>
<path d="M182.259 256.337C182.149 256.259 182.932 255.187 183.346 253.653C183.761 252.12 183.675 250.806 183.808 250.79C184.145 251.755 184.145 252.806 183.808 253.771C183.595 254.776 183.049 255.68 182.259 256.337Z" fill="#263238"/>
<path d="M246.529 271.1C246.458 271.1 246.302 270.482 245.746 269.629C244.987 268.527 243.958 267.638 242.758 267.047C241.538 266.469 240.246 266.058 238.916 265.827C238.352 265.757 237.797 265.631 237.258 265.451C237.829 265.382 238.407 265.403 238.971 265.514C240.352 265.661 241.698 266.039 242.953 266.633C244.225 267.251 245.288 268.227 246.012 269.441C246.34 269.933 246.519 270.509 246.529 271.1Z" fill="#263238"/>
<path d="M257.505 271.483C257.434 271.53 256.918 270.568 255.807 269.23C255.157 268.449 254.44 267.726 253.663 267.071C251.763 265.452 249.542 264.253 247.147 263.55C246.173 263.258 245.175 263.051 244.166 262.932C242.437 262.737 241.349 262.83 241.349 262.744C241.602 262.664 241.866 262.624 242.132 262.627C242.43 262.588 242.731 262.575 243.031 262.588C243.428 262.575 243.825 262.588 244.221 262.627C245.258 262.699 246.286 262.877 247.287 263.159C248.512 263.51 249.697 263.987 250.824 264.583C251.938 265.202 252.987 265.933 253.953 266.766C254.731 267.452 255.441 268.212 256.073 269.034C256.32 269.348 256.55 269.674 256.762 270.012C256.93 270.263 257.081 270.524 257.215 270.795C257.345 271.009 257.443 271.241 257.505 271.483Z" fill="#263238"/>
<path d="M206.183 218.785C206.33 219.328 206.447 219.879 206.535 220.435C206.746 221.499 207.075 223.033 207.544 224.918C208.778 229.818 210.36 234.623 212.278 239.298C213.404 242.044 214.304 244.727 215.25 247.121C216.047 249.241 217.026 251.289 218.176 253.239C218.953 254.552 219.903 255.755 221.001 256.814C221.783 257.558 222.284 257.902 222.252 257.941C222.122 257.876 221.999 257.797 221.885 257.706C221.53 257.474 221.195 257.212 220.883 256.924C219.727 255.898 218.726 254.709 217.91 253.396C216.711 251.446 215.695 249.391 214.875 247.254C213.905 244.868 212.997 242.192 211.871 239.431C209.942 234.738 208.393 229.898 207.239 224.957C206.809 223.064 206.527 221.515 206.371 220.435C206.277 219.896 206.238 219.473 206.207 219.191C206.181 219.057 206.173 218.921 206.183 218.785Z" fill="#263238"/>
<g opacity="0.4">
<path d="M100.801 132.633C100.739 132.367 102.241 131.686 104.862 131.279C106.394 131.051 107.945 130.967 109.493 131.029C111.397 131.109 113.288 131.371 115.142 131.811C116.987 132.284 118.783 132.928 120.508 133.736C121.91 134.39 123.246 135.175 124.498 136.083C126.626 137.648 127.628 138.962 127.456 139.173C127.284 139.385 125.891 138.563 123.677 137.397C122.381 136.716 121.052 136.1 119.695 135.551C118.037 134.902 116.341 134.354 114.617 133.908C112.883 133.498 111.124 133.195 109.352 133.001C107.717 132.844 106.223 132.774 104.971 132.782C102.468 132.852 100.872 132.954 100.801 132.633Z" fill="white"/>
</g>
<g opacity="0.4">
<path d="M48.3999 141.864C48.2591 141.864 48.04 141.192 47.8992 139.916C47.7381 138.087 47.8303 136.244 48.173 134.44C48.6668 131.752 49.6139 129.167 50.9738 126.797C52.6195 123.847 54.8793 121.286 57.6003 119.286C60.3213 117.286 63.4401 115.893 66.7459 115.202C69.414 114.614 72.1628 114.484 74.8744 114.819C76.6873 115.023 78.4624 115.481 80.1474 116.18C81.3288 116.696 81.9155 117.111 81.8607 117.236C81.7356 117.588 79.1147 116.532 74.7492 116.36C72.2133 116.255 69.6755 116.518 67.2153 117.142C64.2154 117.877 61.39 119.196 58.901 121.025C56.4119 122.853 54.3083 125.155 52.7106 127.798C51.3683 129.956 50.3508 132.299 49.6907 134.753C48.5485 139.032 48.7676 141.849 48.3999 141.864Z" fill="white"/>
</g>
<path d="M251.473 214.153C251.454 214.239 251.425 214.323 251.387 214.403C251.317 214.583 251.223 214.818 251.098 215.115L249.94 217.83C248.899 220.177 247.405 223.572 245.152 227.578C242.596 232.334 239.201 236.588 235.13 240.135C233.966 241.205 232.606 242.039 231.124 242.591C230.338 242.873 229.499 242.977 228.668 242.896C227.797 242.789 226.993 242.376 226.399 241.731C225.833 241.055 225.445 240.248 225.272 239.384C225.105 238.566 225.001 237.737 224.959 236.904C224.845 235.208 224.722 233.487 224.592 231.74C224.099 224.762 223.629 218.119 223.207 212.072C223.004 209.06 223.011 206.063 224.06 203.466C225.055 201.124 226.68 199.104 228.754 197.63C230.43 196.417 232.275 195.457 234.23 194.782C235.705 194.269 237.21 193.846 238.736 193.515C239.988 193.233 240.966 193.045 241.631 192.928L242.413 192.795H242.672C242.591 192.828 242.507 192.854 242.421 192.873L241.639 193.045L238.768 193.71C237.257 194.069 235.768 194.513 234.308 195.04C232.377 195.731 230.556 196.698 228.902 197.911C226.887 199.36 225.314 201.34 224.357 203.63C223.348 206.11 223.348 209.036 223.575 212.041C224.013 218.088 224.49 224.73 224.998 231.701C225.124 233.446 225.241 235.167 225.366 236.864C225.491 238.562 225.656 240.283 226.712 241.465C227.235 242.033 227.941 242.401 228.707 242.505C229.478 242.573 230.254 242.475 230.983 242.216C232.428 241.697 233.757 240.899 234.895 239.869C238.944 236.364 242.335 232.164 244.909 227.468C247.194 223.502 248.727 220.122 249.814 217.806L251.051 215.123C251.184 214.841 251.293 214.607 251.379 214.435C251.401 214.338 251.433 214.244 251.473 214.153Z" fill="#263238"/>
<path d="M274.106 223.455C273.512 223.346 273.285 221.89 273.606 220.193C273.926 218.495 274.654 217.22 275.248 217.329C275.843 217.439 276.078 218.894 275.757 220.592C275.436 222.289 274.709 223.604 274.106 223.455Z" fill="#263238"/>
<path d="M276.891 207.628C276.618 207.793 276.109 207.448 275.389 207.276C274.436 207.043 273.436 207.081 272.503 207.386C271.467 207.812 270.474 208.336 269.537 208.95C268.716 209.412 268.106 209.647 267.895 209.42C267.683 209.193 267.895 208.598 268.505 207.785C269.339 206.667 270.485 205.821 271.798 205.352C272.517 205.091 273.287 205.01 274.044 205.115C274.801 205.22 275.52 205.508 276.14 205.954C276.52 206.234 276.806 206.621 276.962 207.065C277.064 207.347 277.009 207.55 276.891 207.628Z" fill="#263238"/>
<path d="M276.531 198.952C276.531 198.952 276.782 198.952 276.907 199.319C276.983 199.529 276.983 199.759 276.907 199.969C276.849 200.114 276.757 200.242 276.639 200.343C276.52 200.444 276.378 200.514 276.226 200.548C275.427 200.644 274.618 200.465 273.934 200.039C273.013 199.578 272.194 198.937 271.524 198.154L270.429 196.871L271.767 197.903C272.12 198.099 272.43 198.364 272.677 198.682C272.925 199.001 273.105 199.367 273.206 199.758C273.25 199.992 273.231 200.235 273.151 200.46C273.072 200.685 272.934 200.885 272.753 201.041C272.55 201.171 272.321 201.257 272.083 201.294C271.844 201.33 271.601 201.316 271.368 201.252C269.5 200.851 267.868 199.726 266.83 198.122C266.632 197.823 266.457 197.51 266.306 197.184L265.641 195.83L266.65 196.949C267.418 197.803 268.006 198.804 268.379 199.891C268.49 200.164 268.551 200.456 268.559 200.751C268.552 200.918 268.498 201.08 268.404 201.218C268.31 201.356 268.18 201.465 268.027 201.534C267.75 201.608 267.46 201.619 267.178 201.565C266.896 201.51 266.63 201.393 266.4 201.221C264.901 200.258 263.636 198.973 262.7 197.457C262.073 196.449 261.604 195.352 261.307 194.203C261.23 193.894 261.17 193.58 261.127 193.264C261.106 193.153 261.106 193.039 261.127 192.928C261.507 194.473 262.133 195.947 262.981 197.293C263.925 198.743 265.171 199.971 266.635 200.892C266.813 201.022 267.016 201.113 267.232 201.159C267.448 201.205 267.671 201.204 267.886 201.158C268.254 201.009 268.207 200.501 268.004 200.008C267.643 198.976 267.079 198.026 266.345 197.215L266.705 196.98C266.848 197.286 267.013 197.582 267.198 197.864C268.176 199.365 269.7 200.425 271.446 200.822C271.622 200.874 271.806 200.889 271.988 200.866C272.17 200.843 272.345 200.783 272.502 200.689C272.63 200.578 272.727 200.437 272.783 200.277C272.839 200.118 272.853 199.947 272.823 199.781C272.629 199.096 272.174 198.515 271.556 198.162L271.798 197.903C272.426 198.666 273.197 199.298 274.067 199.765C274.688 200.178 275.427 200.376 276.171 200.329C276.282 200.307 276.387 200.264 276.481 200.201C276.574 200.139 276.654 200.058 276.716 199.964C276.778 199.87 276.821 199.765 276.842 199.654C276.862 199.543 276.86 199.429 276.836 199.319C276.735 199.03 276.508 198.975 276.531 198.952Z" fill="#263238"/>
<g opacity="0.3">
<path d="M229.098 243.107C232.853 243.358 236.757 243.584 240.238 242.168C244.933 240.26 248.062 235.597 249.408 230.707C250.753 225.817 250.698 221.413 250.511 216.351C245.723 228.384 240.551 237.764 229.098 243.107Z" fill="black"/>
</g>
<path d="M303.194 235.769C303.16 235.901 303.113 236.03 303.053 236.152C302.944 236.395 302.779 236.747 302.56 237.201C301.964 238.507 301.173 239.715 300.213 240.784C299.579 241.441 298.813 242.067 298.03 242.763C297.227 243.593 296.26 244.246 295.19 244.68C294.558 244.895 293.867 244.853 293.266 244.562C292.662 244.242 292.173 243.741 291.865 243.131C291.353 241.847 291.225 240.441 291.498 239.086C291.765 236.513 292.289 233.973 293.062 231.505C293.655 229.467 294.543 227.527 295.699 225.747C296.489 224.534 297.563 223.532 298.828 222.829C299.17 222.641 299.532 222.494 299.908 222.391C300.034 222.344 300.166 222.313 300.299 222.297C300.299 222.344 299.767 222.477 298.914 222.978C297.721 223.72 296.715 224.726 295.973 225.919C294.873 227.695 294.03 229.618 293.469 231.63C292.705 234.074 292.181 236.587 291.905 239.133C291.643 240.404 291.752 241.724 292.218 242.935C292.48 243.467 292.901 243.904 293.422 244.187C293.672 244.311 293.943 244.384 294.221 244.403C294.499 244.422 294.778 244.385 295.042 244.296C296.061 243.882 296.986 243.267 297.764 242.489C298.547 241.801 299.329 241.191 299.963 240.565C300.914 239.532 301.72 238.374 302.357 237.122C302.605 236.653 302.885 236.201 303.194 235.769Z" fill="#263238"/>
<path d="M301.394 229.08C301.989 229.159 302.451 229.425 302.419 229.683C302.388 229.941 301.872 230.066 301.269 229.988C300.667 229.91 300.213 229.644 300.244 229.385C300.276 229.127 300.792 229.026 301.394 229.08Z" fill="#263238"/>
<path d="M297.717 231.036C298.304 230.887 298.828 230.966 298.899 231.216C298.969 231.466 298.539 231.795 297.96 231.951C297.381 232.108 296.841 232.03 296.779 231.771C296.716 231.513 297.123 231.192 297.717 231.036Z" fill="#263238"/>
<path d="M301.207 231.959C301.77 231.732 302.286 231.685 302.349 231.85C302.411 232.014 302.012 232.343 301.449 232.562C300.886 232.781 300.377 232.835 300.315 232.671C300.252 232.507 300.651 232.21 301.207 231.959Z" fill="#263238"/>
<path d="M298.046 236.387C297.903 236.439 297.749 236.45 297.6 236.42C297.451 236.389 297.313 236.319 297.202 236.216C297.09 236.112 297.009 235.98 296.968 235.834C296.926 235.688 296.925 235.533 296.966 235.387C297.006 235.24 297.086 235.108 297.196 235.004C297.307 234.899 297.444 234.828 297.593 234.796C297.741 234.764 297.896 234.774 298.039 234.824C298.183 234.875 298.31 234.963 298.406 235.081C298.522 235.304 298.55 235.562 298.483 235.805C298.417 236.047 298.26 236.256 298.046 236.387Z" fill="#263238"/>
<g opacity="0.3">
<path d="M306.049 223.267C304.062 222.696 301.402 222.157 300.51 221.977C299.619 221.797 298.946 222.618 298.289 223.017C296.497 224.112 295.331 225.974 294.377 227.86C292.405 231.905 291.889 236.466 291.748 240.933C291.701 242.325 292.288 243.812 293.641 244.164C293.982 244.276 294.342 244.313 294.699 244.274C295.055 244.235 295.399 244.12 295.707 243.937C299.113 242.023 301.789 239.035 303.319 235.441C304.943 231.578 305.855 227.454 306.01 223.267" fill="black"/>
</g>
<path d="M304.054 222.821C303.906 222.657 303.632 222.774 303.46 222.915C302.682 223.673 302.114 224.619 301.809 225.661C301.662 225.985 301.569 226.332 301.535 226.686C301.523 226.863 301.555 227.041 301.627 227.203C301.699 227.365 301.81 227.508 301.95 227.617C302.132 227.721 302.339 227.775 302.548 227.775C302.758 227.775 302.964 227.721 303.147 227.617C303.515 227.429 303.835 227.148 304.211 226.968C304.344 226.905 304.532 226.866 304.618 226.968C304.704 227.069 304.618 227.242 304.547 227.359C304.239 227.878 304.057 228.462 304.015 229.064C303.977 229.35 304.02 229.64 304.141 229.901C304.202 230.032 304.302 230.141 304.426 230.215C304.55 230.289 304.693 230.324 304.837 230.316C304.837 230.316 306.957 224.347 305.58 223.432C304.203 222.516 304.054 222.821 304.054 222.821Z" fill="#263238"/>
<g opacity="0.3">
<path d="M260.282 191.974C261.932 195.896 264.277 199.488 267.206 202.575C268.207 200.423 267.026 197.927 265.86 195.846C267.281 197.879 269.125 199.579 271.266 200.83C271.598 201.072 272.008 201.183 272.416 201.143C272.563 201.084 272.697 200.997 272.81 200.887C272.923 200.776 273.013 200.645 273.075 200.499C273.137 200.354 273.169 200.197 273.17 200.039C273.171 199.881 273.141 199.724 273.081 199.578C272.809 198.995 272.392 198.491 271.869 198.115C271.344 197.729 270.964 197.178 270.789 196.55C271.96 197.797 273.329 198.842 274.842 199.641C275.357 199.985 275.986 200.111 276.594 199.993C276.989 199.805 277.296 199.474 277.454 199.066C277.611 198.658 277.606 198.206 277.439 197.802C277.07 197.005 276.467 196.339 275.71 195.893C271.455 192.875 266.375 191.236 261.158 191.199" fill="black"/>
</g>
<g opacity="0.4">
<path d="M226.712 230.598C226.423 230.598 225.93 228.415 225.46 224.777C224.814 219.99 224.843 215.137 225.546 210.358C225.773 208.984 226.086 207.625 226.485 206.29C226.843 205.03 227.306 203.803 227.87 202.621C228.81 200.512 230.326 198.712 232.243 197.426C233.55 196.57 235.086 196.13 236.648 196.167C237.743 196.229 238.283 196.55 238.252 196.675C238.22 196.8 237.649 196.824 236.687 197.019C235.377 197.29 234.149 197.866 233.104 198.701C231.58 199.973 230.404 201.609 229.685 203.458C229.219 204.572 228.832 205.717 228.527 206.885C228.176 208.149 227.897 209.431 227.69 210.726C226.806 216.054 226.97 221.053 226.986 224.675C227.001 228.298 227.025 230.566 226.712 230.598Z" fill="white"/>
</g>
<path d="M13.7263 154.085C13.8113 153.485 14.0077 152.906 14.3053 152.379C15.6097 149.724 17.8338 147.634 20.564 146.496C21.1086 146.231 21.6974 146.069 22.3008 146.019C22.3634 146.152 19.633 146.871 17.2156 149.148C14.7981 151.425 13.8593 154.147 13.7263 154.085Z" fill="#263238"/>
<path d="M10.5969 144.986C10.55 144.986 10.683 144.54 11.0741 143.961C11.6094 143.209 12.3043 142.585 13.1091 142.133C13.9138 141.682 14.8085 141.414 15.7291 141.348C16.1077 141.284 16.4965 141.322 16.8557 141.458C15.6259 141.594 14.4292 141.943 13.3195 142.49C11.5122 143.5 10.7143 145.064 10.5969 144.986Z" fill="#263238"/>
<path d="M351.512 253.278C352.365 253.677 353.276 253.94 354.211 254.06C354.679 254.115 355.154 254.063 355.6 253.909C356.045 253.754 356.45 253.501 356.785 253.168C357.152 252.761 357.363 252.222 357.739 251.815C358.18 251.428 358.72 251.171 359.299 251.073C359.878 250.974 360.473 251.039 361.017 251.259C361.804 251.522 362.517 251.969 363.096 252.564C363.674 253.159 364.102 253.884 364.342 254.678C364.561 255.48 364.567 256.325 364.359 257.129C364.15 257.933 363.734 258.669 363.153 259.263C362.553 259.838 361.802 260.231 360.988 260.396C360.173 260.561 359.329 260.491 358.553 260.194C358.553 260.194 364.029 262.181 362.527 266.21C361.025 270.239 355.877 270.748 354.054 267.297C354.054 267.297 353.272 264.77 352.489 264.473C351.707 264.176 349.008 263.002 349.008 263.002L344.361 261.117C343.506 260.722 342.596 260.458 341.662 260.335C341.193 260.28 340.718 260.331 340.273 260.486C339.827 260.64 339.422 260.893 339.088 261.226C338.72 261.641 338.509 262.173 338.133 262.58C337.695 262.972 337.155 263.233 336.575 263.333C335.996 263.433 335.399 263.367 334.855 263.143C334.067 262.881 333.353 262.432 332.775 261.836C332.196 261.239 331.769 260.512 331.53 259.716C331.311 258.916 331.305 258.072 331.514 257.269C331.722 256.466 332.138 255.732 332.72 255.14C333.317 254.563 334.066 254.169 334.88 254.004C335.694 253.84 336.537 253.91 337.312 254.209C337.312 254.209 331.836 252.214 333.338 248.185C334.84 244.156 339.995 243.655 341.818 247.097C341.818 247.097 342.601 249.632 343.383 249.929C344.165 250.227 346.857 251.4 346.857 251.4L351.512 253.278Z" fill="#020080"/>
<path d="M350.377 252.152C351.234 252.55 352.147 252.813 353.084 252.934C353.553 252.989 354.027 252.937 354.473 252.783C354.919 252.629 355.324 252.375 355.658 252.042C356.026 251.628 356.237 251.096 356.612 250.689C357.054 250.302 357.594 250.045 358.173 249.947C358.752 249.849 359.346 249.913 359.89 250.133C360.678 250.394 361.39 250.842 361.968 251.437C362.545 252.032 362.97 252.758 363.208 253.552C363.435 254.352 363.445 255.199 363.237 256.004C363.03 256.81 362.612 257.546 362.026 258.137C361.426 258.711 360.675 259.103 359.861 259.267C359.047 259.432 358.203 259.363 357.426 259.068C357.426 259.068 362.903 261.055 361.4 265.084C359.898 269.113 354.75 269.614 352.928 266.171C352.928 266.171 352.145 263.644 351.363 263.347C350.581 263.05 347.881 261.869 347.881 261.869L343.234 259.991C342.38 259.594 341.47 259.33 340.535 259.209C340.065 259.152 339.589 259.203 339.142 259.358C338.695 259.512 338.288 259.766 337.954 260.1C337.594 260.515 337.382 261.047 337.007 261.454C336.567 261.847 336.025 262.107 335.444 262.205C334.863 262.304 334.265 262.236 333.721 262.009C332.934 261.748 332.221 261.301 331.644 260.706C331.066 260.111 330.641 259.385 330.404 258.59C330.179 257.791 330.171 256.946 330.38 256.141C330.589 255.337 331.008 254.603 331.593 254.014C332.191 253.438 332.94 253.043 333.753 252.877C334.566 252.711 335.41 252.78 336.185 253.075C336.185 253.075 330.709 251.088 332.211 247.059C333.713 243.03 338.861 242.529 340.684 245.971C340.684 245.971 341.466 248.498 342.249 248.796C343.031 249.093 345.722 250.274 345.722 250.274L350.377 252.152Z" fill="#020080"/>
<path d="M354.555 227.57C355.22 227.527 355.874 227.381 356.495 227.14C356.807 227.019 357.088 226.829 357.315 226.583C357.543 226.338 357.712 226.044 357.809 225.724C357.895 225.341 357.848 224.942 357.95 224.558C358.094 224.168 358.343 223.826 358.671 223.57C358.998 223.314 359.391 223.155 359.804 223.111C360.384 223.01 360.98 223.05 361.541 223.229C362.102 223.407 362.612 223.718 363.027 224.136C363.432 224.562 363.717 225.087 363.855 225.658C363.992 226.229 363.976 226.827 363.81 227.39C363.632 227.95 363.297 228.448 362.845 228.824C362.393 229.199 361.843 229.438 361.259 229.51C361.259 229.51 365.351 228.916 365.758 231.936C366.165 234.956 363.121 236.997 360.829 235.456C360.829 235.456 359.515 234.126 358.928 234.204C358.341 234.283 356.268 234.455 356.268 234.455L352.732 234.838C352.067 234.879 351.413 235.022 350.792 235.261C350.481 235.384 350.202 235.575 349.974 235.82C349.747 236.065 349.577 236.358 349.477 236.677C349.391 237.06 349.477 237.459 349.336 237.842C349.193 238.233 348.943 238.576 348.616 238.833C348.288 239.09 347.896 239.251 347.482 239.298C346.902 239.396 346.307 239.355 345.746 239.177C345.185 238.998 344.675 238.688 344.259 238.273C343.857 237.845 343.573 237.32 343.436 236.749C343.298 236.179 343.312 235.582 343.477 235.018C343.66 234.459 343.997 233.962 344.45 233.586C344.902 233.21 345.452 232.968 346.035 232.89C346.035 232.89 341.943 233.493 341.536 230.465C341.13 227.437 344.165 225.411 346.457 226.944C346.457 226.944 347.78 228.274 348.359 228.196C348.937 228.118 351.026 227.954 351.026 227.954L354.555 227.57Z" fill="#020080"/>
<path d="M353.467 227.242C354.134 227.197 354.79 227.054 355.416 226.819C355.727 226.696 356.007 226.504 356.233 226.258C356.459 226.011 356.627 225.716 356.722 225.395C356.816 225.02 356.769 224.613 356.863 224.237C357.015 223.851 357.271 223.515 357.602 223.265C357.934 223.015 358.327 222.862 358.74 222.821C359.321 222.72 359.916 222.761 360.478 222.939C361.039 223.118 361.548 223.429 361.964 223.846C362.368 224.272 362.653 224.797 362.791 225.369C362.928 225.94 362.913 226.537 362.746 227.101C362.563 227.66 362.226 228.157 361.773 228.533C361.321 228.909 360.771 229.15 360.188 229.229C360.188 229.229 364.287 228.626 364.694 231.654C365.101 234.682 362.058 236.708 359.765 235.175C359.765 235.175 358.451 233.845 357.864 233.923C357.278 234.001 355.196 234.165 355.196 234.165L351.668 234.549C351.002 234.593 350.345 234.736 349.72 234.971C349.409 235.095 349.131 235.288 348.905 235.534C348.678 235.781 348.511 236.075 348.414 236.395C348.327 236.778 348.414 237.177 348.273 237.561C348.127 237.951 347.876 238.293 347.547 238.548C347.218 238.804 346.825 238.963 346.411 239.008C345.832 239.108 345.237 239.067 344.678 238.889C344.118 238.711 343.609 238.4 343.195 237.983C342.791 237.557 342.506 237.032 342.368 236.461C342.231 235.889 342.246 235.292 342.413 234.729C342.597 234.171 342.935 233.676 343.387 233.301C343.84 232.926 344.389 232.686 344.971 232.608C344.971 232.608 340.88 233.203 340.473 230.183C340.066 227.163 343.101 225.121 345.394 226.663C345.394 226.663 346.708 227.985 347.295 227.914C347.882 227.844 349.963 227.664 349.963 227.664L353.467 227.242Z" fill="#020080"/>
</svg>
