<svg width="282" height="282" viewBox="0 0 282 282" fill="none" xmlns="http://www.w3.org/2000/svg">
<path d="M0.834961 1H14.184V14.349H0.834961V1Z" fill="black"/>
<path d="M14.184 1H27.5331V14.349H14.184V1Z" fill="black"/>
<path d="M27.5331 1H40.8821V14.349H27.5331V1Z" fill="black"/>
<path d="M40.8821 1H54.2311V14.349H40.8821V1Z" fill="black"/>
<path d="M54.2311 1H67.5802V14.349H54.2311V1Z" fill="black"/>
<path d="M67.5802 1H80.9292V14.349H67.5802V1Z" fill="black"/>
<path d="M80.9292 1H94.2783V14.349H80.9292V1Z" fill="black"/>
<path d="M107.627 1H120.976V14.349H107.627V1Z" fill="black"/>
<path d="M120.976 1H134.325V14.349H120.976V1Z" fill="black"/>
<path d="M134.325 1H147.674V14.349H134.325V1Z" fill="black"/>
<path d="M161.024 1H174.373V14.349H161.024V1Z" fill="black"/>
<path d="M187.722 1H201.071V14.349H187.722V1Z" fill="black"/>
<path d="M201.071 1H214.42V14.349H201.071V1Z" fill="black"/>
<path d="M214.42 1H227.769V14.349H214.42V1Z" fill="black"/>
<path d="M227.769 1H241.118V14.349H227.769V1Z" fill="black"/>
<path d="M241.118 1H254.467V14.349H241.118V1Z" fill="black"/>
<path d="M254.467 1H267.816V14.349H254.467V1Z" fill="black"/>
<path d="M267.816 1H281.165V14.349H267.816V1Z" fill="black"/>
<path d="M0.834961 14.349H14.184V27.6981H0.834961V14.349Z" fill="black"/>
<path d="M80.9292 14.349H94.2783V27.6981H80.9292V14.349Z" fill="black"/>
<path d="M107.627 14.349H120.976V27.6981H107.627V14.349Z" fill="black"/>
<path d="M120.976 14.349H134.325V27.6981H120.976V14.349Z" fill="black"/>
<path d="M147.674 14.349H161.024V27.6981H147.674V14.349Z" fill="black"/>
<path d="M161.024 14.349H174.373V27.6981H161.024V14.349Z" fill="black"/>
<path d="M187.722 14.349H201.071V27.6981H187.722V14.349Z" fill="black"/>
<path d="M267.816 14.349H281.165V27.6981H267.816V14.349Z" fill="black"/>
<path d="M0.834961 27.6981H14.184V41.0471H0.834961V27.6981Z" fill="black"/>
<path d="M27.5331 27.6981H40.8821V41.0471H27.5331V27.6981Z" fill="black"/>
<path d="M40.8821 27.6981H54.2311V41.0471H40.8821V27.6981Z" fill="black"/>
<path d="M54.2311 27.6981H67.5802V41.0471H54.2311V27.6981Z" fill="black"/>
<path d="M80.9292 27.6981H94.2783V41.0471H80.9292V27.6981Z" fill="black"/>
<path d="M107.627 27.6981H120.976V41.0471H107.627V27.6981Z" fill="black"/>
<path d="M120.976 27.6981H134.325V41.0471H120.976V27.6981Z" fill="black"/>
<path d="M134.325 27.6981H147.674V41.0471H134.325V27.6981Z" fill="black"/>
<path d="M147.674 27.6981H161.024V41.0471H147.674V27.6981Z" fill="black"/>
<path d="M187.722 27.6981H201.071V41.0471H187.722V27.6981Z" fill="black"/>
<path d="M214.42 27.6981H227.769V41.0471H214.42V27.6981Z" fill="black"/>
<path d="M227.769 27.6981H241.118V41.0471H227.769V27.6981Z" fill="black"/>
<path d="M241.118 27.6981H254.467V41.0471H241.118V27.6981Z" fill="black"/>
<path d="M267.816 27.6981H281.165V41.0471H267.816V27.6981Z" fill="black"/>
<path d="M0.834961 41.0471H14.184V54.3962H0.834961V41.0471Z" fill="black"/>
<path d="M27.5331 41.0471H40.8821V54.3962H27.5331V41.0471Z" fill="black"/>
<path d="M40.8821 41.0471H54.2311V54.3962H40.8821V41.0471Z" fill="black"/>
<path d="M54.2311 41.0471H67.5802V54.3962H54.2311V41.0471Z" fill="black"/>
<path d="M80.9292 41.0471H94.2783V54.3962H80.9292V41.0471Z" fill="black"/>
<path d="M120.976 41.0471H134.325V54.3962H120.976V41.0471Z" fill="black"/>
<path d="M134.325 41.0471H147.674V54.3962H134.325V41.0471Z" fill="black"/>
<path d="M147.674 41.0471H161.024V54.3962H147.674V41.0471Z" fill="black"/>
<path d="M187.722 41.0471H201.071V54.3962H187.722V41.0471Z" fill="black"/>
<path d="M214.42 41.0471H227.769V54.3962H214.42V41.0471Z" fill="black"/>
<path d="M227.769 41.0471H241.118V54.3962H227.769V41.0471Z" fill="black"/>
<path d="M241.118 41.0471H254.467V54.3962H241.118V41.0471Z" fill="black"/>
<path d="M267.816 41.0471H281.165V54.3962H267.816V41.0471Z" fill="black"/>
<path d="M0.834961 54.3962H14.184V67.7452H0.834961V54.3962Z" fill="black"/>
<path d="M27.5331 54.3962H40.8821V67.7452H27.5331V54.3962Z" fill="black"/>
<path d="M40.8821 54.3962H54.2311V67.7452H40.8821V54.3962Z" fill="black"/>
<path d="M54.2311 54.3962H67.5802V67.7452H54.2311V54.3962Z" fill="black"/>
<path d="M80.9292 54.3962H94.2783V67.7452H80.9292V54.3962Z" fill="black"/>
<path d="M120.976 54.3962H134.325V67.7452H120.976V54.3962Z" fill="black"/>
<path d="M161.024 54.3962H174.373V67.7452H161.024V54.3962Z" fill="black"/>
<path d="M187.722 54.3962H201.071V67.7452H187.722V54.3962Z" fill="black"/>
<path d="M214.42 54.3962H227.769V67.7452H214.42V54.3962Z" fill="black"/>
<path d="M227.769 54.3962H241.118V67.7452H227.769V54.3962Z" fill="black"/>
<path d="M241.118 54.3962H254.467V67.7452H241.118V54.3962Z" fill="black"/>
<path d="M267.816 54.3962H281.165V67.7452H267.816V54.3962Z" fill="black"/>
<path d="M0.834961 67.7452H14.184V81.0943H0.834961V67.7452Z" fill="black"/>
<path d="M80.9292 67.7452H94.2783V81.0943H80.9292V67.7452Z" fill="black"/>
<path d="M107.627 67.7452H120.976V81.0943H107.627V67.7452Z" fill="black"/>
<path d="M120.976 67.7452H134.325V81.0943H120.976V67.7452Z" fill="black"/>
<path d="M134.325 67.7452H147.674V81.0943H134.325V67.7452Z" fill="black"/>
<path d="M161.024 67.7452H174.373V81.0943H161.024V67.7452Z" fill="black"/>
<path d="M187.722 67.7452H201.071V81.0943H187.722V67.7452Z" fill="black"/>
<path d="M267.816 67.7452H281.165V81.0943H267.816V67.7452Z" fill="black"/>
<path d="M0.834961 81.0943H14.184V94.4433H0.834961V81.0943Z" fill="black"/>
<path d="M14.184 81.0943H27.5331V94.4433H14.184V81.0943Z" fill="black"/>
<path d="M27.5331 81.0943H40.8821V94.4433H27.5331V81.0943Z" fill="black"/>
<path d="M40.8821 81.0943H54.2311V94.4433H40.8821V81.0943Z" fill="black"/>
<path d="M54.2311 81.0943H67.5802V94.4433H54.2311V81.0943Z" fill="black"/>
<path d="M67.5802 81.0943H80.9292V94.4433H67.5802V81.0943Z" fill="black"/>
<path d="M80.9292 81.0943H94.2783V94.4433H80.9292V81.0943Z" fill="black"/>
<path d="M107.627 81.0943H120.976V94.4433H107.627V81.0943Z" fill="black"/>
<path d="M134.325 81.0943H147.674V94.4433H134.325V81.0943Z" fill="black"/>
<path d="M161.024 81.0943H174.373V94.4433H161.024V81.0943Z" fill="black"/>
<path d="M187.722 81.0943H201.071V94.4433H187.722V81.0943Z" fill="black"/>
<path d="M201.071 81.0943H214.42V94.4433H201.071V81.0943Z" fill="black"/>
<path d="M214.42 81.0943H227.769V94.4433H214.42V81.0943Z" fill="black"/>
<path d="M227.769 81.0943H241.118V94.4433H227.769V81.0943Z" fill="black"/>
<path d="M241.118 81.0943H254.467V94.4433H241.118V81.0943Z" fill="black"/>
<path d="M254.467 81.0943H267.816V94.4433H254.467V81.0943Z" fill="black"/>
<path d="M267.816 81.0943H281.165V94.4433H267.816V81.0943Z" fill="black"/>
<path d="M107.627 94.4433H120.976V107.792H107.627V94.4433Z" fill="black"/>
<path d="M120.976 94.4433H134.325V107.792H120.976V94.4433Z" fill="black"/>
<path d="M147.674 94.4433H161.024V107.792H147.674V94.4433Z" fill="black"/>
<path d="M161.024 94.4433H174.373V107.792H161.024V94.4433Z" fill="black"/>
<path d="M27.5331 107.792H40.8821V121.141H27.5331V107.792Z" fill="black"/>
<path d="M40.8821 107.792H54.2311V121.141H40.8821V107.792Z" fill="black"/>
<path d="M54.2311 107.792H67.5802V121.141H54.2311V107.792Z" fill="black"/>
<path d="M80.9292 107.792H94.2783V121.141H80.9292V107.792Z" fill="black"/>
<path d="M107.627 107.792H120.976V121.141H107.627V107.792Z" fill="black"/>
<path d="M120.976 107.792H134.325V121.141H120.976V107.792Z" fill="black"/>
<path d="M134.325 107.792H147.674V121.141H134.325V107.792Z" fill="black"/>
<path d="M174.373 107.792H187.722V121.141H174.373V107.792Z" fill="black"/>
<path d="M187.722 107.792H201.071V121.141H187.722V107.792Z" fill="black"/>
<path d="M201.071 107.792H214.42V121.141H201.071V107.792Z" fill="black"/>
<path d="M241.118 107.792H254.467V121.141H241.118V107.792Z" fill="black"/>
<path d="M254.467 107.792H267.816V121.141H254.467V107.792Z" fill="black"/>
<path d="M267.816 107.792H281.165V121.141H267.816V107.792Z" fill="black"/>
<path d="M0.834961 121.141H14.184V134.49H0.834961V121.141Z" fill="black"/>
<path d="M40.8821 121.141H54.2311V134.49H40.8821V121.141Z" fill="black"/>
<path d="M94.2783 121.141H107.627V134.49H94.2783V121.141Z" fill="black"/>
<path d="M120.976 121.141H134.325V134.49H120.976V121.141Z" fill="black"/>
<path d="M147.674 121.141H161.024V134.49H147.674V121.141Z" fill="black"/>
<path d="M161.024 121.141H174.373V134.49H161.024V121.141Z" fill="black"/>
<path d="M174.373 121.141H187.722V134.49H174.373V121.141Z" fill="black"/>
<path d="M201.071 121.141H214.42V134.49H201.071V121.141Z" fill="black"/>
<path d="M227.769 121.141H241.118V134.49H227.769V121.141Z" fill="black"/>
<path d="M241.118 121.141H254.467V134.49H241.118V121.141Z" fill="black"/>
<path d="M267.816 121.141H281.165V134.49H267.816V121.141Z" fill="black"/>
<path d="M0.834961 134.49H14.184V147.84H0.834961V134.49Z" fill="black"/>
<path d="M14.184 134.49H27.5331V147.84H14.184V134.49Z" fill="black"/>
<path d="M27.5331 134.49H40.8821V147.84H27.5331V134.49Z" fill="black"/>
<path d="M80.9292 134.49H94.2783V147.84H80.9292V134.49Z" fill="black"/>
<path d="M120.976 134.49H134.325V147.84H120.976V134.49Z" fill="black"/>
<path d="M147.674 134.49H161.024V147.84H147.674V134.49Z" fill="black"/>
<path d="M174.373 134.49H187.722V147.84H174.373V134.49Z" fill="black"/>
<path d="M214.42 134.49H227.769V147.84H214.42V134.49Z" fill="black"/>
<path d="M241.118 134.49H254.467V147.84H241.118V134.49Z" fill="black"/>
<path d="M254.467 134.49H267.816V147.84H254.467V134.49Z" fill="black"/>
<path d="M0.834961 147.84H14.184V161.189H0.834961V147.84Z" fill="black"/>
<path d="M40.8821 147.84H54.2311V161.189H40.8821V147.84Z" fill="black"/>
<path d="M67.5802 147.84H80.9292V161.189H67.5802V147.84Z" fill="black"/>
<path d="M120.976 147.84H134.325V161.189H120.976V147.84Z" fill="black"/>
<path d="M134.325 147.84H147.674V161.189H134.325V147.84Z" fill="black"/>
<path d="M161.024 147.84H174.373V161.189H161.024V147.84Z" fill="black"/>
<path d="M187.722 147.84H201.071V161.189H187.722V147.84Z" fill="black"/>
<path d="M201.071 147.84H214.42V161.189H201.071V147.84Z" fill="black"/>
<path d="M214.42 147.84H227.769V161.189H214.42V147.84Z" fill="black"/>
<path d="M227.769 147.84H241.118V161.189H227.769V147.84Z" fill="black"/>
<path d="M241.118 147.84H254.467V161.189H241.118V147.84Z" fill="black"/>
<path d="M14.184 161.189H27.5331V174.538H14.184V161.189Z" fill="black"/>
<path d="M27.5331 161.189H40.8821V174.538H27.5331V161.189Z" fill="black"/>
<path d="M67.5802 161.189H80.9292V174.538H67.5802V161.189Z" fill="black"/>
<path d="M80.9292 161.189H94.2783V174.538H80.9292V161.189Z" fill="black"/>
<path d="M120.976 161.189H134.325V174.538H120.976V161.189Z" fill="black"/>
<path d="M134.325 161.189H147.674V174.538H134.325V161.189Z" fill="black"/>
<path d="M147.674 161.189H161.024V174.538H147.674V161.189Z" fill="black"/>
<path d="M161.024 161.189H174.373V174.538H161.024V161.189Z" fill="black"/>
<path d="M214.42 161.189H227.769V174.538H214.42V161.189Z" fill="black"/>
<path d="M254.467 161.189H267.816V174.538H254.467V161.189Z" fill="black"/>
<path d="M107.627 174.538H120.976V187.887H107.627V174.538Z" fill="black"/>
<path d="M120.976 174.538H134.325V187.887H120.976V174.538Z" fill="black"/>
<path d="M147.674 174.538H161.024V187.887H147.674V174.538Z" fill="black"/>
<path d="M161.024 174.538H174.373V187.887H161.024V174.538Z" fill="black"/>
<path d="M174.373 174.538H187.722V187.887H174.373V174.538Z" fill="black"/>
<path d="M187.722 174.538H201.071V187.887H187.722V174.538Z" fill="black"/>
<path d="M227.769 174.538H241.118V187.887H227.769V174.538Z" fill="black"/>
<path d="M241.118 174.538H254.467V187.887H241.118V174.538Z" fill="black"/>
<path d="M267.816 174.538H281.165V187.887H267.816V174.538Z" fill="black"/>
<path d="M0.834961 187.887H14.184V201.236H0.834961V187.887Z" fill="black"/>
<path d="M14.184 187.887H27.5331V201.236H14.184V187.887Z" fill="black"/>
<path d="M27.5331 187.887H40.8821V201.236H27.5331V187.887Z" fill="black"/>
<path d="M40.8821 187.887H54.2311V201.236H40.8821V187.887Z" fill="black"/>
<path d="M54.2311 187.887H67.5802V201.236H54.2311V187.887Z" fill="black"/>
<path d="M67.5802 187.887H80.9292V201.236H67.5802V187.887Z" fill="black"/>
<path d="M80.9292 187.887H94.2783V201.236H80.9292V187.887Z" fill="black"/>
<path d="M120.976 187.887H134.325V201.236H120.976V187.887Z" fill="black"/>
<path d="M161.024 187.887H174.373V201.236H161.024V187.887Z" fill="black"/>
<path d="M174.373 187.887H187.722V201.236H174.373V187.887Z" fill="black"/>
<path d="M201.071 187.887H214.42V201.236H201.071V187.887Z" fill="black"/>
<path d="M241.118 187.887H254.467V201.236H241.118V187.887Z" fill="black"/>
<path d="M254.467 187.887H267.816V201.236H254.467V187.887Z" fill="black"/>
<path d="M0.834961 201.236H14.184V214.585H0.834961V201.236Z" fill="black"/>
<path d="M80.9292 201.236H94.2783V214.585H80.9292V201.236Z" fill="black"/>
<path d="M187.722 201.236H201.071V214.585H187.722V201.236Z" fill="black"/>
<path d="M227.769 201.236H241.118V214.585H227.769V201.236Z" fill="black"/>
<path d="M241.118 201.236H254.467V214.585H241.118V201.236Z" fill="black"/>
<path d="M0.834961 214.585H14.184V227.934H0.834961V214.585Z" fill="black"/>
<path d="M27.5331 214.585H40.8821V227.934H27.5331V214.585Z" fill="black"/>
<path d="M40.8821 214.585H54.2311V227.934H40.8821V214.585Z" fill="black"/>
<path d="M54.2311 214.585H67.5802V227.934H54.2311V214.585Z" fill="black"/>
<path d="M80.9292 214.585H94.2783V227.934H80.9292V214.585Z" fill="black"/>
<path d="M107.627 214.585H120.976V227.934H107.627V214.585Z" fill="black"/>
<path d="M161.024 214.585H174.373V227.934H161.024V214.585Z" fill="black"/>
<path d="M187.722 214.585H201.071V227.934H187.722V214.585Z" fill="black"/>
<path d="M201.071 214.585H214.42V227.934H201.071V214.585Z" fill="black"/>
<path d="M254.467 214.585H267.816V227.934H254.467V214.585Z" fill="black"/>
<path d="M0.834961 227.934H14.184V241.283H0.834961V227.934Z" fill="black"/>
<path d="M27.5331 227.934H40.8821V241.283H27.5331V227.934Z" fill="black"/>
<path d="M40.8821 227.934H54.2311V241.283H40.8821V227.934Z" fill="black"/>
<path d="M54.2311 227.934H67.5802V241.283H54.2311V227.934Z" fill="black"/>
<path d="M80.9292 227.934H94.2783V241.283H80.9292V227.934Z" fill="black"/>
<path d="M107.627 227.934H120.976V241.283H107.627V227.934Z" fill="black"/>
<path d="M120.976 227.934H134.325V241.283H120.976V227.934Z" fill="black"/>
<path d="M134.325 227.934H147.674V241.283H134.325V227.934Z" fill="black"/>
<path d="M147.674 227.934H161.024V241.283H147.674V227.934Z" fill="black"/>
<path d="M187.722 227.934H201.071V241.283H187.722V227.934Z" fill="black"/>
<path d="M201.071 227.934H214.42V241.283H201.071V227.934Z" fill="black"/>
<path d="M227.769 227.934H241.118V241.283H227.769V227.934Z" fill="black"/>
<path d="M241.118 227.934H254.467V241.283H241.118V227.934Z" fill="black"/>
<path d="M0.834961 241.283H14.184V254.632H0.834961V241.283Z" fill="black"/>
<path d="M27.5331 241.283H40.8821V254.632H27.5331V241.283Z" fill="black"/>
<path d="M40.8821 241.283H54.2311V254.632H40.8821V241.283Z" fill="black"/>
<path d="M54.2311 241.283H67.5802V254.632H54.2311V241.283Z" fill="black"/>
<path d="M80.9292 241.283H94.2783V254.632H80.9292V241.283Z" fill="black"/>
<path d="M107.627 241.283H120.976V254.632H107.627V241.283Z" fill="black"/>
<path d="M120.976 241.283H134.325V254.632H120.976V241.283Z" fill="black"/>
<path d="M161.024 241.283H174.373V254.632H161.024V241.283Z" fill="black"/>
<path d="M214.42 241.283H227.769V254.632H214.42V241.283Z" fill="black"/>
<path d="M241.118 241.283H254.467V254.632H241.118V241.283Z" fill="black"/>
<path d="M0.834961 254.632H14.184V267.981H0.834961V254.632Z" fill="black"/>
<path d="M80.9292 254.632H94.2783V267.981H80.9292V254.632Z" fill="black"/>
<path d="M120.976 254.632H134.325V267.981H120.976V254.632Z" fill="black"/>
<path d="M134.325 254.632H147.674V267.981H134.325V254.632Z" fill="black"/>
<path d="M147.674 254.632H161.024V267.981H147.674V254.632Z" fill="black"/>
<path d="M161.024 254.632H174.373V267.981H161.024V254.632Z" fill="black"/>
<path d="M201.071 254.632H214.42V267.981H201.071V254.632Z" fill="black"/>
<path d="M214.42 254.632H227.769V267.981H214.42V254.632Z" fill="black"/>
<path d="M241.118 254.632H254.467V267.981H241.118V254.632Z" fill="black"/>
<path d="M0.834961 267.981H14.184V281.33H0.834961V267.981Z" fill="black"/>
<path d="M14.184 267.981H27.5331V281.33H14.184V267.981Z" fill="black"/>
<path d="M27.5331 267.981H40.8821V281.33H27.5331V267.981Z" fill="black"/>
<path d="M40.8821 267.981H54.2311V281.33H40.8821V267.981Z" fill="black"/>
<path d="M54.2311 267.981H67.5802V281.33H54.2311V267.981Z" fill="black"/>
<path d="M67.5802 267.981H80.9292V281.33H67.5802V267.981Z" fill="black"/>
<path d="M80.9292 267.981H94.2783V281.33H80.9292V267.981Z" fill="black"/>
<path d="M120.976 267.981H134.325V281.33H120.976V267.981Z" fill="black"/>
<path d="M147.674 267.981H161.024V281.33H147.674V267.981Z" fill="black"/>
<path d="M174.373 267.981H187.722V281.33H174.373V267.981Z" fill="black"/>
<path d="M187.722 267.981H201.071V281.33H187.722V267.981Z" fill="black"/>
<path d="M214.42 267.981H227.769V281.33H214.42V267.981Z" fill="black"/>
<path d="M241.118 267.981H254.467V281.33H241.118V267.981Z" fill="black"/>
<path d="M254.467 267.981H267.816V281.33H254.467V267.981Z" fill="black"/>
<path d="M14.184 1H0.834961V14.349M14.184 1V14.349M14.184 1H27.5331M14.184 14.349H0.834961M14.184 14.349H27.5331M14.184 14.349V27.6981M0.834961 14.349V27.6981M27.5331 1V14.349M27.5331 1H40.8821M27.5331 14.349H40.8821M40.8821 1V14.349M40.8821 1H54.2311M40.8821 14.349H54.2311M54.2311 1V14.349M54.2311 1H67.5802M54.2311 14.349H67.5802M67.5802 1V14.349M67.5802 1H80.9292M67.5802 14.349H80.9292M80.9292 1V14.349M80.9292 1H94.2783V14.349M80.9292 14.349H94.2783M80.9292 14.349V27.6981M94.2783 14.349V27.6981M120.976 1H107.627V14.349M120.976 1V14.349M120.976 1H134.325M120.976 14.349H107.627M120.976 14.349H134.325M120.976 14.349V27.6981M107.627 14.349V27.6981M134.325 1V14.349M134.325 1H147.674V14.349M134.325 14.349H147.674M134.325 14.349V27.6981M147.674 14.349H161.024M147.674 14.349V27.6981M174.373 14.349V1H161.024V14.349M174.373 14.349H161.024M174.373 14.349V27.6981H161.024M161.024 14.349V27.6981M201.071 1H187.722V14.349M201.071 1V14.349M201.071 1H214.42M201.071 14.349H187.722M201.071 14.349H214.42M201.071 14.349V27.6981M187.722 14.349V27.6981M214.42 1V14.349M214.42 1H227.769M214.42 14.349H227.769M227.769 1V14.349M227.769 1H241.118M227.769 14.349H241.118M241.118 1V14.349M241.118 1H254.467M241.118 14.349H254.467M254.467 1V14.349M254.467 1H267.816M254.467 14.349H267.816M267.816 1V14.349M267.816 1H281.165V14.349M267.816 14.349H281.165M267.816 14.349V27.6981M281.165 14.349V27.6981M14.184 27.6981H0.834961M14.184 27.6981V41.0471M0.834961 27.6981V41.0471M94.2783 27.6981H80.9292M94.2783 27.6981V41.0471M80.9292 27.6981V41.0471M120.976 27.6981H107.627M120.976 27.6981H134.325M120.976 27.6981V41.0471M107.627 27.6981V41.0471H120.976M134.325 27.6981V41.0471M134.325 27.6981H147.674M161.024 27.6981H147.674M161.024 27.6981V41.0471M147.674 27.6981V41.0471M201.071 27.6981H187.722M201.071 27.6981V41.0471M187.722 27.6981V41.0471M281.165 27.6981H267.816M281.165 27.6981V41.0471M267.816 27.6981V41.0471M14.184 41.0471H0.834961M14.184 41.0471V54.3962M0.834961 41.0471V54.3962M40.8821 27.6981H27.5331V41.0471M40.8821 27.6981V41.0471M40.8821 27.6981H54.2311M40.8821 41.0471H27.5331M40.8821 41.0471H54.2311M40.8821 41.0471V54.3962M27.5331 41.0471V54.3962M54.2311 27.6981V41.0471M54.2311 27.6981H67.5802V41.0471M54.2311 41.0471H67.5802M54.2311 41.0471V54.3962M67.5802 41.0471V54.3962M94.2783 41.0471H80.9292M94.2783 41.0471V54.3962M80.9292 41.0471V54.3962M120.976 41.0471H134.325M120.976 41.0471V54.3962M134.325 41.0471H147.674M134.325 41.0471V54.3962M147.674 41.0471H161.024M147.674 41.0471V54.3962M161.024 41.0471V54.3962M201.071 41.0471H187.722M201.071 41.0471V54.3962M187.722 41.0471V54.3962M227.769 27.6981H214.42V41.0471M227.769 27.6981V41.0471M227.769 27.6981H241.118M227.769 41.0471H214.42M227.769 41.0471H241.118M227.769 41.0471V54.3962M214.42 41.0471V54.3962M241.118 27.6981V41.0471M241.118 27.6981H254.467V41.0471M241.118 41.0471H254.467M241.118 41.0471V54.3962M254.467 41.0471V54.3962M281.165 41.0471H267.816M281.165 41.0471V54.3962M267.816 41.0471V54.3962M14.184 54.3962H0.834961M14.184 54.3962V67.7452M0.834961 54.3962V67.7452M40.8821 54.3962H27.5331M40.8821 54.3962H54.2311M40.8821 54.3962V67.7452M27.5331 54.3962V67.7452H40.8821M54.2311 54.3962H67.5802M54.2311 54.3962V67.7452M67.5802 54.3962V67.7452H54.2311M94.2783 54.3962H80.9292M94.2783 54.3962V67.7452M80.9292 54.3962V67.7452M134.325 54.3962H120.976M134.325 54.3962H147.674M134.325 54.3962V67.7452M120.976 54.3962V67.7452M147.674 54.3962H161.024M161.024 54.3962H174.373V67.7452M161.024 54.3962V67.7452M201.071 54.3962H187.722M201.071 54.3962V67.7452M187.722 54.3962V67.7452M227.769 54.3962H214.42M227.769 54.3962H241.118M227.769 54.3962V67.7452M214.42 54.3962V67.7452H227.769M241.118 54.3962H254.467M241.118 54.3962V67.7452M254.467 54.3962V67.7452H241.118M281.165 54.3962H267.816M281.165 54.3962V67.7452M267.816 54.3962V67.7452M14.184 67.7452H0.834961M14.184 67.7452V81.0943M0.834961 67.7452V81.0943M40.8821 67.7452H54.2311M94.2783 67.7452H80.9292M94.2783 67.7452V81.0943M80.9292 67.7452V81.0943M134.325 67.7452H120.976M134.325 67.7452V81.0943M134.325 67.7452H147.674V81.0943M120.976 67.7452H107.627V81.0943M120.976 67.7452V81.0943M174.373 67.7452H161.024M174.373 67.7452V81.0943M161.024 67.7452V81.0943M201.071 67.7452H187.722M201.071 67.7452V81.0943M187.722 67.7452V81.0943M227.769 67.7452H241.118M281.165 67.7452H267.816M281.165 67.7452V81.0943M267.816 67.7452V81.0943M14.184 81.0943H0.834961M14.184 81.0943V94.4433M14.184 81.0943H27.5331M0.834961 81.0943V94.4433H14.184M94.2783 81.0943H80.9292M94.2783 81.0943V94.4433H80.9292M80.9292 81.0943H67.5802M80.9292 81.0943V94.4433M120.976 81.0943H107.627M120.976 81.0943H134.325M120.976 81.0943V94.4433M107.627 81.0943V94.4433M134.325 81.0943H147.674M134.325 81.0943V94.4433M147.674 81.0943V94.4433M174.373 81.0943H161.024M174.373 81.0943V94.4433M161.024 81.0943V94.4433M201.071 81.0943H187.722M201.071 81.0943V94.4433M201.071 81.0943H214.42M187.722 81.0943V94.4433H201.071M281.165 81.0943H267.816M281.165 81.0943V94.4433H267.816M267.816 81.0943H254.467M267.816 81.0943V94.4433M14.184 94.4433H27.5331M27.5331 81.0943V94.4433M27.5331 81.0943H40.8821M27.5331 94.4433H40.8821M40.8821 81.0943V94.4433M40.8821 81.0943H54.2311M40.8821 94.4433H54.2311M54.2311 81.0943V94.4433M54.2311 81.0943H67.5802M54.2311 94.4433H67.5802M67.5802 81.0943V94.4433M67.5802 94.4433H80.9292M120.976 94.4433H107.627M120.976 94.4433V107.792M120.976 94.4433H134.325M107.627 94.4433V107.792M147.674 94.4433H134.325M147.674 94.4433H161.024M147.674 94.4433V107.792M134.325 94.4433V107.792M174.373 94.4433H161.024M174.373 94.4433V107.792M161.024 94.4433V107.792M201.071 94.4433H214.42M214.42 81.0943V94.4433M214.42 81.0943H227.769M214.42 94.4433H227.769M227.769 81.0943V94.4433M227.769 81.0943H241.118M227.769 94.4433H241.118M241.118 81.0943V94.4433M241.118 81.0943H254.467M241.118 94.4433H254.467M254.467 81.0943V94.4433M254.467 94.4433H267.816M120.976 107.792H107.627M120.976 107.792H134.325M120.976 107.792V121.141M107.627 107.792V121.141M134.325 107.792V121.141M134.325 107.792H147.674M161.024 107.792H147.674M161.024 107.792H174.373M147.674 107.792V121.141M174.373 107.792H187.722M174.373 107.792V121.141M40.8821 107.792H27.5331V121.141H40.8821M40.8821 107.792V121.141M40.8821 107.792H54.2311M40.8821 121.141H54.2311M40.8821 121.141V134.49M54.2311 107.792V121.141M54.2311 107.792H67.5802V121.141H54.2311M54.2311 121.141V134.49H40.8821M94.2783 121.141V107.792H80.9292V121.141H94.2783ZM94.2783 121.141H107.627M94.2783 121.141V134.49M120.976 121.141H107.627M120.976 121.141H134.325M120.976 121.141V134.49M107.627 121.141V134.49H94.2783M134.325 121.141H147.674M134.325 121.141V134.49M147.674 121.141H161.024M147.674 121.141V134.49M187.722 107.792V121.141M187.722 107.792H201.071M187.722 121.141H174.373M187.722 121.141H201.071M187.722 121.141V134.49M174.373 121.141H161.024M174.373 121.141V134.49M201.071 107.792V121.141M201.071 107.792H214.42V121.141M201.071 121.141H214.42M201.071 121.141V134.49H214.42M214.42 121.141V134.49M254.467 107.792H241.118V121.141M254.467 107.792V121.141M254.467 107.792H267.816M254.467 121.141H241.118M254.467 121.141H267.816M254.467 121.141V134.49M241.118 121.141H227.769V134.49M241.118 121.141V134.49M267.816 107.792V121.141M267.816 107.792H281.165V121.141M267.816 121.141H281.165M267.816 121.141V134.49M281.165 121.141V134.49H267.816M14.184 134.49V121.141H0.834961V134.49M14.184 134.49H0.834961M14.184 134.49V147.84M14.184 134.49H27.5331M0.834961 134.49V147.84M40.8821 134.49H27.5331M40.8821 134.49V147.84M94.2783 134.49H80.9292V147.84M94.2783 134.49V147.84H80.9292M134.325 134.49H120.976M134.325 134.49V147.84M120.976 134.49V147.84M161.024 121.141V134.49M161.024 134.49H147.674M161.024 134.49H174.373M161.024 134.49V147.84M147.674 134.49V147.84M174.373 134.49H187.722M174.373 134.49V147.84M187.722 134.49V147.84M214.42 134.49H227.769M214.42 134.49V147.84M241.118 134.49H227.769M241.118 134.49H254.467M241.118 134.49V147.84M227.769 134.49V147.84M254.467 134.49V147.84M254.467 134.49H267.816M267.816 134.49V147.84H254.467M14.184 147.84H0.834961M14.184 147.84H27.5331M14.184 147.84V161.189M0.834961 147.84V161.189H14.184M27.5331 134.49V147.84M27.5331 147.84H40.8821M40.8821 147.84H54.2311V161.189H40.8821M40.8821 147.84V161.189M80.9292 147.84H67.5802V161.189M80.9292 147.84V161.189M134.325 147.84H120.976M134.325 147.84V161.189M134.325 147.84H147.674M120.976 147.84V161.189M161.024 147.84H147.674M161.024 147.84H174.373M161.024 147.84V161.189M147.674 147.84V161.189M187.722 147.84H174.373M187.722 147.84H201.071M187.722 147.84V161.189H201.071M174.373 147.84V161.189M227.769 147.84H214.42M227.769 147.84V161.189M227.769 147.84H241.118M214.42 147.84H201.071M214.42 147.84V161.189M254.467 147.84H241.118M254.467 147.84V161.189M241.118 147.84V161.189M14.184 161.189H27.5331M14.184 161.189V174.538H27.5331M40.8821 161.189H27.5331M40.8821 161.189V174.538H27.5331M80.9292 161.189H67.5802M80.9292 161.189V174.538M80.9292 161.189H94.2783V174.538H80.9292M67.5802 161.189V174.538H80.9292M134.325 161.189H120.976M134.325 161.189H147.674M134.325 161.189V174.538M120.976 161.189V174.538M147.674 161.189V174.538M147.674 161.189H161.024M174.373 161.189H161.024M174.373 161.189V174.538M161.024 161.189V174.538M201.071 147.84V161.189M201.071 161.189H214.42M214.42 161.189H227.769M214.42 161.189V174.538H227.769M227.769 161.189H241.118M227.769 161.189V174.538M241.118 161.189H254.467M254.467 161.189H267.816V174.538M254.467 161.189V174.538M27.5331 161.189V174.538M134.325 174.538H120.976M134.325 174.538H147.674M134.325 174.538V187.887M120.976 174.538H107.627V187.887H120.976M120.976 174.538V187.887M147.674 174.538H161.024M147.674 174.538V187.887H161.024M161.024 174.538H174.373M161.024 174.538V187.887M174.373 174.538V187.887M174.373 174.538H187.722M227.769 174.538H241.118M227.769 174.538V187.887H241.118M267.816 174.538H254.467M267.816 174.538H281.165V187.887H267.816M267.816 174.538V187.887M254.467 174.538H241.118M254.467 174.538V187.887M120.976 187.887H134.325M120.976 187.887V201.236H134.325V187.887M161.024 187.887H174.373M161.024 187.887V201.236H174.373M174.373 187.887H187.722M174.373 187.887V201.236M187.722 174.538V187.887M187.722 174.538H201.071V187.887M187.722 187.887H201.071M187.722 187.887V201.236M201.071 187.887H214.42V201.236H201.071M201.071 187.887V201.236M241.118 174.538V187.887M241.118 187.887H254.467M241.118 187.887V201.236M254.467 187.887V201.236M254.467 187.887H267.816M267.816 187.887V201.236H254.467M14.184 187.887H0.834961V201.236M14.184 187.887V201.236M14.184 187.887H27.5331M14.184 201.236H0.834961M14.184 201.236H27.5331M14.184 201.236V214.585M0.834961 201.236V214.585M27.5331 187.887V201.236M27.5331 187.887H40.8821M27.5331 201.236H40.8821M40.8821 187.887V201.236M40.8821 187.887H54.2311M40.8821 201.236H54.2311M54.2311 187.887V201.236M54.2311 187.887H67.5802M54.2311 201.236H67.5802M67.5802 187.887V201.236M67.5802 187.887H80.9292M67.5802 201.236H80.9292M80.9292 187.887V201.236M80.9292 187.887H94.2783V201.236M80.9292 201.236H94.2783M80.9292 201.236V214.585M94.2783 201.236V214.585M174.373 201.236H187.722M187.722 201.236H201.071M187.722 201.236V214.585M201.071 201.236V214.585M254.467 201.236H241.118M254.467 201.236V214.585M241.118 201.236H227.769V214.585H241.118M241.118 201.236V214.585M14.184 214.585H0.834961M14.184 214.585V227.934M0.834961 214.585V227.934M94.2783 214.585H80.9292M94.2783 214.585V227.934M80.9292 214.585V227.934M201.071 214.585H187.722M201.071 214.585V227.934M201.071 214.585H214.42V227.934M187.722 214.585V227.934M241.118 214.585H254.467M254.467 214.585H267.816V227.934H254.467M254.467 214.585V227.934M14.184 227.934H0.834961M14.184 227.934V241.283M0.834961 227.934V241.283M40.8821 214.585H27.5331V227.934M40.8821 214.585V227.934M40.8821 214.585H54.2311M40.8821 227.934H27.5331M40.8821 227.934H54.2311M40.8821 227.934V241.283M27.5331 227.934V241.283M54.2311 214.585V227.934M54.2311 214.585H67.5802V227.934M54.2311 227.934H67.5802M54.2311 227.934V241.283M67.5802 227.934V241.283M94.2783 227.934H80.9292M94.2783 227.934V241.283M80.9292 227.934V241.283M120.976 227.934V214.585H107.627V227.934M120.976 227.934H107.627M120.976 227.934V241.283M120.976 227.934H134.325M107.627 227.934V241.283M161.024 227.934H174.373V214.585H161.024V227.934ZM161.024 227.934H147.674M161.024 227.934V241.283M201.071 227.934H187.722M201.071 227.934H214.42M201.071 227.934V241.283M187.722 227.934V241.283H201.071M214.42 227.934V241.283M254.467 227.934H241.118M254.467 227.934V241.283M14.184 241.283H0.834961M14.184 241.283V254.632M0.834961 241.283V254.632M40.8821 241.283H27.5331M40.8821 241.283H54.2311M40.8821 241.283V254.632M27.5331 241.283V254.632H40.8821M54.2311 241.283H67.5802M54.2311 241.283V254.632M67.5802 241.283V254.632H54.2311M94.2783 241.283H80.9292M94.2783 241.283V254.632M80.9292 241.283V254.632M120.976 241.283H107.627M120.976 241.283H134.325M120.976 241.283V254.632M107.627 241.283V254.632H120.976M134.325 227.934V241.283M134.325 227.934H147.674M134.325 241.283H147.674M134.325 241.283V254.632M147.674 227.934V241.283M147.674 241.283H161.024M161.024 241.283H174.373V254.632M161.024 241.283V254.632M201.071 241.283H214.42M214.42 241.283H227.769M214.42 241.283V254.632M241.118 227.934H227.769V241.283M241.118 227.934V241.283M241.118 241.283H227.769M241.118 241.283H254.467M241.118 241.283V254.632M227.769 241.283V254.632M254.467 241.283V254.632M14.184 254.632H0.834961M14.184 254.632V267.981M0.834961 254.632V267.981M40.8821 254.632H54.2311M94.2783 254.632H80.9292M94.2783 254.632V267.981M80.9292 254.632V267.981M120.976 254.632H134.325M120.976 254.632V267.981M134.325 254.632V267.981M134.325 254.632H147.674M174.373 254.632H161.024M174.373 254.632V267.981M161.024 254.632H147.674M161.024 254.632V267.981M227.769 254.632H214.42M227.769 254.632V267.981M214.42 254.632H201.071V267.981M214.42 254.632V267.981M254.467 254.632H241.118M254.467 254.632V267.981M241.118 254.632V267.981M14.184 267.981H0.834961M14.184 267.981V281.33M14.184 267.981H27.5331M0.834961 267.981V281.33H14.184M94.2783 267.981H80.9292M94.2783 267.981V281.33H80.9292M80.9292 267.981H67.5802M80.9292 267.981V281.33M134.325 267.981H120.976M134.325 267.981H147.674M134.325 267.981V281.33H120.976V267.981M147.674 254.632V267.981M147.674 267.981H161.024M147.674 267.981V281.33H161.024V267.981M161.024 267.981H174.373M174.373 267.981H187.722M174.373 267.981V281.33H187.722M214.42 267.981H201.071M214.42 267.981H227.769M214.42 267.981V281.33H227.769V267.981M201.071 267.981H187.722M201.071 267.981V281.33H187.722M254.467 267.981H241.118M254.467 267.981V281.33M254.467 267.981H267.816V281.33H254.467M241.118 267.981V281.33H254.467M14.184 281.33H27.5331M27.5331 267.981V281.33M27.5331 267.981H40.8821M27.5331 281.33H40.8821M40.8821 267.981V281.33M40.8821 267.981H54.2311M40.8821 281.33H54.2311M54.2311 267.981V281.33M54.2311 267.981H67.5802M54.2311 281.33H67.5802M67.5802 267.981V281.33M67.5802 281.33H80.9292M187.722 267.981V281.33" stroke="black" stroke-width="0.667452"/>
</svg>
