<svg width="149" height="104" viewBox="0 0 149 104" fill="none" xmlns="http://www.w3.org/2000/svg">
<rect x="25" y="12" width="122" height="90" rx="16" fill="url(#paint0_linear_378_77)"/>
<rect x="25" y="12" width="122" height="90" rx="16" stroke="white" stroke-width="4"/>
<path d="M50.1498 53.168C49.3498 53.168 48.6378 52.988 48.0138 52.628C47.3898 52.264 46.8998 51.756 46.5438 51.104C46.1878 50.448 46.0098 49.68 46.0098 48.8C46.0098 47.92 46.1878 47.154 46.5438 46.502C46.8998 45.846 47.3898 45.338 48.0138 44.978C48.6378 44.614 49.3498 44.432 50.1498 44.432C50.9498 44.432 51.6618 44.614 52.2858 44.978C52.9098 45.338 53.3998 45.846 53.7558 46.502C54.1118 47.154 54.2898 47.92 54.2898 48.8C54.2898 49.68 54.1118 50.448 53.7558 51.104C53.3998 51.756 52.9098 52.264 52.2858 52.628C51.6618 52.988 50.9498 53.168 50.1498 53.168ZM50.1498 51.68C50.7098 51.68 51.1778 51.556 51.5538 51.308C51.9298 51.06 52.2118 50.72 52.3998 50.288C52.5878 49.852 52.6818 49.356 52.6818 48.8C52.6818 48.244 52.5878 47.75 52.3998 47.318C52.2118 46.882 51.9298 46.54 51.5538 46.292C51.1778 46.044 50.7098 45.92 50.1498 45.92C49.5898 45.92 49.1218 46.044 48.7458 46.292C48.3698 46.54 48.0878 46.882 47.8998 47.318C47.7118 47.75 47.6178 48.244 47.6178 48.8C47.6178 49.356 47.7118 49.852 47.8998 50.288C48.0878 50.72 48.3698 51.06 48.7458 51.308C49.1218 51.556 49.5898 51.68 50.1498 51.68ZM55.631 53V44.6H58.703C59.283 44.6 59.789 44.692 60.221 44.876C60.657 45.06 60.995 45.34 61.235 45.716C61.475 46.092 61.595 46.568 61.595 47.144C61.595 47.76 61.463 48.25 61.199 48.614C60.939 48.974 60.595 49.26 60.167 49.472L62.063 53H60.347L58.727 49.88C58.715 49.88 58.705 49.88 58.697 49.88C58.689 49.88 58.679 49.88 58.667 49.88H57.167V53H55.631ZM57.167 48.596H58.295C58.927 48.596 59.367 48.468 59.615 48.212C59.863 47.952 59.987 47.624 59.987 47.228C59.987 46.808 59.865 46.48 59.621 46.244C59.377 46.004 58.955 45.884 58.355 45.884H57.167V48.596ZM66.8748 53.168C65.9868 53.168 65.2268 52.988 64.5948 52.628C63.9628 52.264 63.4788 51.754 63.1428 51.098C62.8068 50.442 62.6388 49.672 62.6388 48.788C62.6388 47.912 62.8248 47.148 63.1968 46.496C63.5728 45.84 64.0908 45.332 64.7508 44.972C65.4108 44.612 66.1708 44.432 67.0308 44.432C67.4748 44.432 67.8988 44.478 68.3028 44.57C68.7108 44.662 69.0588 44.78 69.3468 44.924L69.1788 46.388C68.8788 46.248 68.5468 46.134 68.1828 46.046C67.8228 45.954 67.4388 45.908 67.0308 45.908C66.4068 45.908 65.8948 46.034 65.4948 46.286C65.0948 46.534 64.7988 46.874 64.6068 47.306C64.4148 47.734 64.3188 48.22 64.3188 48.764C64.3188 49.336 64.4148 49.842 64.6068 50.282C64.8028 50.722 65.0948 51.068 65.4828 51.32C65.8708 51.568 66.3548 51.692 66.9348 51.692C67.1108 51.692 67.2948 51.68 67.4868 51.656C67.6828 51.632 67.8828 51.6 68.0868 51.56V50.06H66.9348V48.788H69.6228V52.532C69.3308 52.704 68.9428 52.854 68.4588 52.982C67.9788 53.106 67.4508 53.168 66.8748 53.168ZM75.6955 51.008H72.1795V49.664H75.6955V51.008ZM73.7395 46.1H74.1355L71.7115 53H70.2235L73.2115 44.6H74.6635L77.6515 53H76.1635L73.7395 46.1ZM78.6115 53V44.6H80.1235L83.7115 50.024V44.6H85.2475V53H83.9875L80.1475 47.24V53H78.6115ZM87.0959 53V44.6H88.6319V53H87.0959ZM89.6546 53L93.9506 45.488L94.2146 45.968H90.1946V44.6H96.0506L91.7546 52.112L91.4906 51.632H95.9906V53H89.6546ZM101.641 51.008H98.1248V49.664H101.641V51.008ZM99.6848 46.1H100.081L97.6568 53H96.1688L99.1568 44.6H100.609L103.597 53H102.109L99.6848 46.1ZM108.232 53.168C107.38 53.168 106.63 52.988 105.982 52.628C105.334 52.264 104.828 51.756 104.464 51.104C104.104 50.448 103.924 49.68 103.924 48.8C103.924 47.92 104.11 47.154 104.482 46.502C104.858 45.846 105.374 45.338 106.03 44.978C106.686 44.614 107.436 44.432 108.28 44.432C108.724 44.432 109.13 44.48 109.498 44.576C109.866 44.668 110.184 44.784 110.452 44.924L110.284 46.388C109.98 46.248 109.666 46.134 109.342 46.046C109.022 45.954 108.664 45.908 108.268 45.908C107.68 45.908 107.188 46.032 106.792 46.28C106.4 46.528 106.104 46.87 105.904 47.306C105.704 47.742 105.604 48.24 105.604 48.8C105.604 49.36 105.702 49.858 105.898 50.294C106.094 50.73 106.386 51.072 106.774 51.32C107.166 51.568 107.652 51.692 108.232 51.692C108.636 51.692 108.998 51.648 109.318 51.56C109.638 51.472 109.96 51.356 110.284 51.212L110.452 52.676C110.136 52.824 109.788 52.942 109.408 53.03C109.032 53.122 108.64 53.168 108.232 53.168ZM108.064 53.948L107.596 53.768C107.692 53.732 107.786 53.702 107.878 53.678C107.974 53.658 108.076 53.648 108.184 53.648C108.532 53.648 108.806 53.738 109.006 53.918C109.21 54.102 109.312 54.36 109.312 54.692C109.312 55.08 109.18 55.372 108.916 55.568C108.656 55.768 108.336 55.868 107.956 55.868C107.74 55.868 107.55 55.844 107.386 55.796C107.226 55.752 107.088 55.7 106.972 55.64L107.2 54.932C107.328 54.992 107.454 55.04 107.578 55.076C107.702 55.116 107.836 55.136 107.98 55.136C108.148 55.136 108.284 55.102 108.388 55.034C108.492 54.97 108.544 54.872 108.544 54.74C108.544 54.6 108.492 54.494 108.388 54.422C108.288 54.354 108.136 54.32 107.932 54.32C107.836 54.32 107.742 54.326 107.65 54.338C107.562 54.35 107.464 54.372 107.356 54.404L107.692 53H108.352L108.064 53.948ZM116.324 51.008H112.808V49.664H116.324V51.008ZM114.368 46.1H114.764L112.34 53H110.852L113.84 44.6H115.292L118.28 53H116.792L114.368 46.1ZM115.616 43.676C115.432 43.676 115.238 43.634 115.034 43.55C114.834 43.466 114.638 43.382 114.446 43.298C114.258 43.214 114.088 43.172 113.936 43.172C113.672 43.172 113.54 43.312 113.54 43.592H112.628C112.628 43.184 112.702 42.872 112.85 42.656C112.998 42.44 113.224 42.332 113.528 42.332C113.712 42.332 113.904 42.374 114.104 42.458C114.308 42.542 114.504 42.626 114.692 42.71C114.884 42.794 115.056 42.836 115.208 42.836C115.472 42.836 115.604 42.696 115.604 42.416H116.516C116.516 42.816 116.442 43.126 116.294 43.346C116.15 43.566 115.924 43.676 115.616 43.676ZM122.748 53.168C121.948 53.168 121.236 52.988 120.612 52.628C119.988 52.264 119.498 51.756 119.142 51.104C118.786 50.448 118.608 49.68 118.608 48.8C118.608 47.92 118.786 47.154 119.142 46.502C119.498 45.846 119.988 45.338 120.612 44.978C121.236 44.614 121.948 44.432 122.748 44.432C123.548 44.432 124.26 44.614 124.884 44.978C125.508 45.338 125.998 45.846 126.354 46.502C126.71 47.154 126.888 47.92 126.888 48.8C126.888 49.68 126.71 50.448 126.354 51.104C125.998 51.756 125.508 52.264 124.884 52.628C124.26 52.988 123.548 53.168 122.748 53.168ZM122.748 51.68C123.308 51.68 123.776 51.556 124.152 51.308C124.528 51.06 124.81 50.72 124.998 50.288C125.186 49.852 125.28 49.356 125.28 48.8C125.28 48.244 125.186 47.75 124.998 47.318C124.81 46.882 124.528 46.54 124.152 46.292C123.776 46.044 123.308 45.92 122.748 45.92C122.188 45.92 121.72 46.044 121.344 46.292C120.968 46.54 120.686 46.882 120.498 47.318C120.31 47.75 120.216 48.244 120.216 48.8C120.216 49.356 120.31 49.852 120.498 50.288C120.686 50.72 120.968 51.06 121.344 51.308C121.72 51.556 122.188 51.68 122.748 51.68ZM48.2385 67.008H44.7225V65.664H48.2385V67.008ZM46.2825 62.1H46.6785L44.2545 69H42.7665L45.7545 60.6H47.2065L50.1945 69H48.7065L46.2825 62.1ZM50.7585 69L51.9225 60.6H53.1825L55.2345 64.428L57.2745 60.6H58.5345L59.6985 69H58.1025L57.2985 62.688L57.7185 62.772L55.2345 67.236L52.7385 62.784L53.1585 62.7L52.3545 69H50.7585ZM61.092 69V60.6H62.628V69H61.092ZM68.2107 69.168C67.3227 69.168 66.5627 68.988 65.9307 68.628C65.2987 68.264 64.8147 67.754 64.4787 67.098C64.1427 66.442 63.9747 65.672 63.9747 64.788C63.9747 63.912 64.1607 63.148 64.5327 62.496C64.9087 61.84 65.4267 61.332 66.0867 60.972C66.7467 60.612 67.5067 60.432 68.3667 60.432C68.8107 60.432 69.2347 60.478 69.6387 60.57C70.0467 60.662 70.3947 60.78 70.6827 60.924L70.5147 62.388C70.2147 62.248 69.8827 62.134 69.5187 62.046C69.1587 61.954 68.7747 61.908 68.3667 61.908C67.7427 61.908 67.2307 62.034 66.8307 62.286C66.4307 62.534 66.1347 62.874 65.9427 63.306C65.7507 63.734 65.6547 64.22 65.6547 64.764C65.6547 65.336 65.7507 65.842 65.9427 66.282C66.1387 66.722 66.4307 67.068 66.8187 67.32C67.2067 67.568 67.6907 67.692 68.2707 67.692C68.4467 67.692 68.6307 67.68 68.8227 67.656C69.0187 67.632 69.2187 67.6 69.4227 67.56V66.06H68.2707V64.788H70.9587V68.532C70.6667 68.704 70.2787 68.854 69.7947 68.982C69.3147 69.106 68.7867 69.168 68.2107 69.168ZM77.0314 67.008H73.5154V65.664H77.0314V67.008ZM75.0754 62.1H75.4714L73.0474 69H71.5594L74.5474 60.6H75.9994L78.9874 69H77.4994L75.0754 62.1ZM82.6428 69V60.6H85.7868C86.5868 60.6 87.2988 60.768 87.9228 61.104C88.5468 61.436 89.0368 61.916 89.3928 62.544C89.7488 63.168 89.9268 63.92 89.9268 64.8C89.9268 65.68 89.7488 66.434 89.3928 67.062C89.0368 67.686 88.5468 68.166 87.9228 68.502C87.2988 68.834 86.5868 69 85.7868 69H82.6428ZM84.1788 67.632H85.7868C86.3308 67.632 86.7848 67.518 87.1488 67.29C87.5128 67.062 87.7868 66.736 87.9708 66.312C88.1548 65.888 88.2468 65.384 88.2468 64.8C88.2468 64.216 88.1548 63.712 87.9708 63.288C87.7868 62.864 87.5128 62.538 87.1488 62.31C86.7848 62.082 86.3308 61.968 85.7868 61.968H84.1788V67.632ZM95.7228 67.008H92.2068V65.664H95.7228V67.008ZM93.7668 62.1H94.1628L91.7388 69H90.2508L93.2388 60.6H94.6908L97.6788 69H96.1908L93.7668 62.1ZM101.334 69V60.6H102.87V67.632H106.326V69H101.334ZM110.902 69.168C110.014 69.168 109.254 68.988 108.622 68.628C107.99 68.264 107.506 67.754 107.17 67.098C106.834 66.442 106.666 65.672 106.666 64.788C106.666 63.912 106.852 63.148 107.224 62.496C107.6 61.84 108.118 61.332 108.778 60.972C109.438 60.612 110.198 60.432 111.058 60.432C111.502 60.432 111.926 60.478 112.33 60.57C112.738 60.662 113.086 60.78 113.374 60.924L113.206 62.388C112.906 62.248 112.574 62.134 112.21 62.046C111.85 61.954 111.466 61.908 111.058 61.908C110.434 61.908 109.922 62.034 109.522 62.286C109.122 62.534 108.826 62.874 108.634 63.306C108.442 63.734 108.346 64.22 108.346 64.764C108.346 65.336 108.442 65.842 108.634 66.282C108.83 66.722 109.122 67.068 109.51 67.32C109.898 67.568 110.382 67.692 110.962 67.692C111.138 67.692 111.322 67.68 111.514 67.656C111.71 67.632 111.91 67.6 112.114 67.56V66.06H110.962V64.788H113.65V68.532C113.358 68.704 112.97 68.854 112.486 68.982C112.006 69.106 111.478 69.168 110.902 69.168ZM115.139 69V60.6H118.127C118.771 60.6 119.315 60.696 119.759 60.888C120.203 61.08 120.539 61.376 120.767 61.776C120.999 62.176 121.115 62.688 121.115 63.312C121.115 63.944 121.001 64.466 120.773 64.878C120.545 65.286 120.211 65.59 119.771 65.79C119.331 65.986 118.795 66.084 118.163 66.084H116.675V69H115.139ZM116.675 64.8H117.983C118.507 64.8 118.899 64.682 119.159 64.446C119.423 64.21 119.555 63.84 119.555 63.336C119.555 62.832 119.421 62.464 119.153 62.232C118.889 62 118.487 61.884 117.947 61.884H116.675V64.8ZM122.287 69V60.6H125.431C126.231 60.6 126.943 60.768 127.567 61.104C128.191 61.436 128.681 61.916 129.037 62.544C129.393 63.168 129.571 63.92 129.571 64.8C129.571 65.68 129.393 66.434 129.037 67.062C128.681 67.686 128.191 68.166 127.567 68.502C126.943 68.834 126.231 69 125.431 69H122.287ZM123.823 67.632H125.431C125.975 67.632 126.429 67.518 126.793 67.29C127.157 67.062 127.431 66.736 127.615 66.312C127.799 65.888 127.891 65.384 127.891 64.8C127.891 64.216 127.799 63.712 127.615 63.288C127.431 62.864 127.157 62.538 126.793 62.31C126.429 62.082 125.975 61.968 125.431 61.968H123.823V67.632Z" fill="white"/>
<mask id="path-3-inside-1_378_77" fill="white">
<path d="M19.6649 0.91006L3.62161 9.92444C1.38463 11.1814 0 13.5476 0 16.1135V35.4279C0 37.9938 1.38462 40.36 3.6216 41.6169L19.6649 50.6313C21.8382 51.8525 24.4929 51.8442 26.6585 50.6094L42.4171 41.6248C44.6323 40.3618 46 38.0077 46 35.4576V16.0837C46 13.5337 44.6323 11.1796 42.4171 9.91656L26.6585 0.931944C24.4928 -0.302801 21.8382 -0.311108 19.6649 0.91006Z"/>
</mask>
<path d="M19.6649 0.91006L3.62161 9.92444C1.38463 11.1814 0 13.5476 0 16.1135V35.4279C0 37.9938 1.38462 40.36 3.6216 41.6169L19.6649 50.6313C21.8382 51.8525 24.4929 51.8442 26.6585 50.6094L42.4171 41.6248C44.6323 40.3618 46 38.0077 46 35.4576V16.0837C46 13.5337 44.6323 11.1796 42.4171 9.91656L26.6585 0.931944C24.4928 -0.302801 21.8382 -0.311108 19.6649 0.91006Z" fill="url(#paint1_linear_378_77)"/>
<path d="M3.62161 9.92444L4.60131 11.6681L3.62161 9.92444ZM19.6649 0.91006L20.6446 2.65367H20.6446L19.6649 0.91006ZM26.6585 0.931944L25.6679 2.66939V2.66939L26.6585 0.931944ZM42.4171 9.91656L41.4265 11.654L42.4171 9.91656ZM42.4171 41.6248L41.4265 39.8873V39.8874L42.4171 41.6248ZM26.6585 50.6094L27.6491 52.3469H27.6491L26.6585 50.6094ZM19.6649 50.6313L18.6852 52.3749L18.6852 52.3749L19.6649 50.6313ZM3.6216 41.6169L2.6419 43.3605H2.6419L3.6216 41.6169ZM4.60131 11.6681L20.6446 2.65367L18.6852 -0.833553L2.64191 8.18083L4.60131 11.6681ZM25.6679 2.66939L41.4265 11.654L43.4076 8.17911L27.6491 -0.805503L25.6679 2.66939ZM44 16.0837V35.4576H48V16.0837H44ZM41.4265 39.8874L25.6679 48.872L27.6491 52.3469L43.4076 43.3622L41.4265 39.8874ZM20.6446 48.8877L4.60131 39.8733L2.6419 43.3605L18.6852 52.3749L20.6446 48.8877ZM2 35.4279V16.1135H-2V35.4279H2ZM4.60131 39.8733C2.99454 38.9705 2 37.2709 2 35.4279H-2C-2 38.7167 -0.225293 41.7495 2.6419 43.3605L4.60131 39.8733ZM25.6679 48.872C24.1124 49.7589 22.2056 49.7648 20.6446 48.8877L18.6852 52.3749C21.4708 53.9401 24.8733 53.9295 27.6491 52.3469L25.6679 48.872ZM44 35.4576C44 37.2893 43.0176 38.9802 41.4265 39.8873L43.4076 43.3622C46.247 41.7434 48 38.7261 48 35.4576H44ZM41.4265 11.654C43.0176 12.5612 44 14.2521 44 16.0837H48C48 12.8153 46.247 9.79795 43.4076 8.17911L41.4265 11.654ZM20.6446 2.65367C22.2056 1.77654 24.1124 1.78251 25.6679 2.66939L27.6491 -0.805503C24.8733 -2.38811 21.4708 -2.39876 18.6852 -0.833553L20.6446 2.65367ZM2.64191 8.18083C-0.22529 9.79185 -2 12.8247 -2 16.1135H2C2 14.2705 2.99454 12.5709 4.60131 11.6681L2.64191 8.18083Z" fill="white" mask="url(#path-3-inside-1_378_77)"/>
<path d="M19.9447 31.9403L20.2945 32.2827L20.6443 31.9403L32.3498 20.4808L32.7147 20.1235L32.3498 19.7663L30.7762 18.2257L30.4264 17.8833L30.0766 18.2257L20.2945 27.8022L15.9234 23.523L15.5736 23.1806L15.2238 23.523L13.6502 25.0636L13.2853 25.4208L13.6502 25.7781L19.9447 31.9403Z" fill="white" stroke="white"/>
<defs>
<linearGradient id="paint0_linear_378_77" x1="86" y1="14" x2="86" y2="100" gradientUnits="userSpaceOnUse">
<stop stop-color="#035E9F"/>
<stop offset="1" stop-color="#014D87"/>
</linearGradient>
<linearGradient id="paint1_linear_378_77" x1="23" y1="0" x2="23" y2="51.5414" gradientUnits="userSpaceOnUse">
<stop stop-color="#0262A1"/>
<stop offset="1" stop-color="#024A86"/>
</linearGradient>
</defs>
</svg>
