<svg width="54" height="45" viewBox="0 0 54 45" fill="none" xmlns="http://www.w3.org/2000/svg">
<path d="M26.9894 36.3734C27.3289 36.3734 27.6365 36.3197 27.9124 36.2124C28.1882 36.1051 28.4534 35.9442 28.7081 35.7296C30.066 34.485 31.3603 33.2618 32.591 32.0601C33.8216 30.8584 34.8931 29.6781 35.8055 28.5193C36.7179 27.3605 37.4499 26.2339 38.0016 25.1395C38.5532 24.0451 38.8291 22.9828 38.8291 21.9528C38.8291 20.0644 38.1925 18.4979 36.9195 17.2532C35.6464 16.0086 34.1187 15.3863 32.3363 15.3863C31.233 15.3863 30.2251 15.6116 29.3128 16.0622C28.4004 16.5129 27.6259 17.103 26.9894 17.8326C26.3528 17.103 25.5572 16.5129 24.6024 16.0622C23.6475 15.6116 22.6609 15.3863 21.6424 15.3863C19.8601 15.3863 18.3324 16.0086 17.0593 17.2532C15.7862 18.4979 15.1497 20.0644 15.1497 21.9528C15.1497 22.9828 15.4255 24.0451 15.9772 25.1395C16.5289 26.2339 17.2609 27.3605 18.1733 28.5193C19.0857 29.6781 20.1572 30.8584 21.3878 32.0601C22.6185 33.2618 23.9128 34.485 25.2707 35.7296C25.5253 35.9442 25.7906 36.1051 26.0664 36.2124C26.3422 36.3197 26.6499 36.3734 26.9894 36.3734ZM11.7124 45C10.312 45 9.11316 44.4957 8.11591 43.4871C7.11866 42.4785 6.62004 41.2661 6.62004 39.8498V20.8584L4.07387 22.8541C3.47976 23.2833 2.84322 23.4549 2.16424 23.3691C1.48527 23.2833 0.933595 22.9399 0.509234 22.3391C0.0848723 21.7382 -0.0742633 21.0944 0.0318271 20.4077C0.137917 19.721 0.466798 19.1631 1.01847 18.7339L23.8703 1.03004C24.3371 0.686695 24.8358 0.429185 25.3662 0.257511C25.8967 0.0858369 26.4377 0 26.9894 0C27.5411 0 28.0821 0.0858369 28.6126 0.257511C29.143 0.429185 29.6417 0.686695 30.1084 1.03004L53.024 18.7339C53.5756 19.1631 53.8939 19.721 53.9788 20.4077C54.0637 21.0944 53.8939 21.7382 53.4696 22.3391C53.0452 22.897 52.4935 23.2189 51.8145 23.3047C51.1356 23.3906 50.5202 23.2189 49.9686 22.7897L47.3587 20.8584V39.8498C47.3587 41.2661 46.8601 42.4785 45.8629 43.4871C44.8656 44.4957 43.6668 45 42.2664 45H11.7124Z" fill="#020080"/>
</svg>
