<svg width="25" height="24" viewBox="0 0 25 24" fill="none" xmlns="http://www.w3.org/2000/svg">
<path d="M16.3889 19H8.61111C8.31643 19 8.03381 18.8841 7.82544 18.6778C7.61706 18.4715 7.5 18.1917 7.5 17.9V8H17.5V17.9C17.5 18.1917 17.3829 18.4715 17.1746 18.6778C16.9662 18.8841 16.6836 19 16.3889 19Z" stroke="#01005B" stroke-width="2" stroke-linecap="round" stroke-linejoin="round"/>
<path d="M11 15.5V11.5" stroke="#01005B" stroke-width="2" stroke-linecap="round" stroke-linejoin="round"/>
<path d="M14 15.5V11.5" stroke="#01005B" stroke-width="2" stroke-linecap="round" stroke-linejoin="round"/>
<path d="M5.5 8H19.5" stroke="#01005B" stroke-width="2" stroke-linecap="round" stroke-linejoin="round"/>
<path d="M14.3 5H10.7C10.3817 5 10.0765 5.15804 9.85147 5.43934C9.62643 5.72064 9.5 6.10218 9.5 6.5V8H15.5V6.5C15.5 6.10218 15.3736 5.72064 15.1485 5.43934C14.9235 5.15804 14.6183 5 14.3 5Z" stroke="#01005B" stroke-width="2" stroke-linecap="round" stroke-linejoin="round"/>
</svg>
