<svg width="53" height="48" viewBox="0 0 53 48" fill="none" xmlns="http://www.w3.org/2000/svg">
<path d="M19.7963 0.0977539C15.2945 0.0739349 10.9118 4.409 12.9126 9.7921H5.36195C4.09851 9.7921 2.88682 10.294 1.99343 11.1874C1.10004 12.0808 0.598145 13.2925 0.598145 14.5559V19.3197C0.598145 19.9514 0.849094 20.5573 1.29579 21.004C1.74248 21.4507 2.34833 21.7016 2.98005 21.7016H24.4172V14.5559H29.181V21.7016H50.6181C51.2498 21.7016 51.8557 21.4507 52.3024 21.004C52.749 20.5573 53 19.9514 53 19.3197V14.5559C53 13.2925 52.4981 12.0808 51.6047 11.1874C50.7113 10.294 49.4996 9.7921 48.2362 9.7921H40.6856C43.4724 2.00328 32.992 -3.49892 28.1568 3.21805L26.7991 5.02829L25.4414 3.17041C23.9408 1.05052 21.8685 0.121573 19.7963 0.0977539ZM19.6534 5.02829C21.7733 5.02829 22.8451 7.60075 21.3445 9.10135C19.8439 10.6019 17.2715 9.53009 17.2715 7.41019C17.2715 6.77847 17.5224 6.17263 17.9691 5.72594C18.4158 5.27924 19.0216 5.02829 19.6534 5.02829ZM33.9448 5.02829C36.0647 5.02829 37.1365 7.60075 35.6359 9.10135C34.1353 10.6019 31.5629 9.53009 31.5629 7.41019C31.5629 6.77847 31.8138 6.17263 32.2605 5.72594C32.7072 5.27924 33.3131 5.02829 33.9448 5.02829ZM2.98005 24.0835V43.1387C2.98005 44.4022 3.48195 45.6139 4.37533 46.5072C5.26872 47.4006 6.48041 47.9025 7.74385 47.9025H45.8543C47.1177 47.9025 48.3294 47.4006 49.2228 46.5072C50.1162 45.6139 50.6181 44.4022 50.6181 43.1387V24.0835H29.181V43.1387H24.4172V24.0835H2.98005Z" fill="#020080"/>
</svg>
