<svg width="24" height="24" viewBox="0 0 24 24" fill="none" xmlns="http://www.w3.org/2000/svg">
<g id="Facebook - Negative" clip-path="url(#clip0_515_4425)">
<path id="Vector" d="M23.9922 12.0068C23.9922 5.37941 18.6196 0.00683594 11.9922 0.00683594C5.36477 0.00683594 -0.0078125 5.37941 -0.0078125 12.0068C-0.0078125 17.9963 4.38039 22.9608 10.1172 23.8611V15.4756H7.07031V12.0068H10.1172V9.36309C10.1172 6.35559 11.9088 4.69434 14.6498 4.69434C15.9623 4.69434 17.3359 4.92871 17.3359 4.92871V7.88184H15.8228C14.3322 7.88184 13.8672 8.80691 13.8672 9.75684V12.0068H17.1953L16.6633 15.4756H13.8672V23.8611C19.604 22.9608 23.9922 17.9963 23.9922 12.0068Z" fill="#020080"/>
</g>
<defs>
<clipPath id="clip0_515_4425">
<rect width="24" height="24" fill="white" transform="translate(-0.0078125 0.00683594)"/>
</clipPath>
</defs>
</svg>
