<svg width="48" height="46" viewBox="0 0 48 46" fill="none" xmlns="http://www.w3.org/2000/svg">
<g id="Group 12">
<path id="Vector" d="M6.83865 21.8189C10.0862 21.8189 12.7188 19.1863 12.7188 15.9387C12.7188 12.6912 10.0862 10.0586 6.83865 10.0586C3.59113 10.0586 0.958496 12.6912 0.958496 15.9387C0.958496 19.1863 3.59113 21.8189 6.83865 21.8189Z" fill="#020080"/>
<path id="Vector_2" d="M17.423 12.4107C20.6705 12.4107 23.3032 9.77807 23.3032 6.53055C23.3032 3.28303 20.6705 0.650391 17.423 0.650391C14.1755 0.650391 11.5428 3.28303 11.5428 6.53055C11.5428 9.77807 14.1755 12.4107 17.423 12.4107Z" fill="#020080"/>
<path id="Vector_3" d="M31.5356 12.4107C34.7831 12.4107 37.4157 9.77807 37.4157 6.53055C37.4157 3.28303 34.7831 0.650391 31.5356 0.650391C28.288 0.650391 25.6554 3.28303 25.6554 6.53055C25.6554 9.77807 28.288 12.4107 31.5356 12.4107Z" fill="#020080"/>
<path id="Vector_4" d="M42.1199 21.8189C45.3674 21.8189 48.0001 19.1863 48.0001 15.9387C48.0001 12.6912 45.3674 10.0586 42.1199 10.0586C38.8724 10.0586 36.2397 12.6912 36.2397 15.9387C36.2397 19.1863 38.8724 21.8189 42.1199 21.8189Z" fill="#020080"/>
<path id="Vector_5" d="M37.0391 28.546C34.9928 26.1469 33.2758 24.1006 31.206 21.7015C30.1241 20.4314 28.7363 19.1613 27.0899 18.5968C26.8312 18.5027 26.5724 18.4321 26.3137 18.3851C25.7257 18.291 25.0906 18.291 24.4791 18.291C23.8676 18.291 23.2325 18.291 22.621 18.4086C22.3622 18.4557 22.1035 18.5262 21.8448 18.6203C20.1983 19.1848 18.8342 20.4549 17.7287 21.725C15.6824 24.1241 13.9654 26.1704 11.8956 28.5695C8.81437 31.6507 5.02755 35.0612 5.73317 39.8359C6.41527 42.235 8.13227 44.6106 11.2135 45.2927C12.9305 45.6455 18.4108 44.2578 24.2439 44.2578H24.6673C30.5004 44.2578 35.9807 45.622 37.6977 45.2927C40.7789 44.6106 42.4959 42.2115 43.178 39.8359C43.9071 35.0377 40.1203 31.6272 37.0391 28.546Z" fill="#020080"/>
</g>
</svg>
