<svg width="24" height="24" viewBox="0 0 24 24" fill="none" xmlns="http://www.w3.org/2000/svg">
<g id="Instagram - Negative" clip-path="url(#clip0_515_4429)">
<g id="Group">
<path id="Vector" d="M12 2.16777C15.2063 2.16777 15.5859 2.18184 16.8469 2.23809C18.0188 2.28965 18.6516 2.48652 19.0734 2.65059C19.6313 2.86621 20.0344 3.12871 20.4516 3.5459C20.8734 3.96777 21.1313 4.36621 21.3469 4.92402C21.5109 5.3459 21.7078 5.9834 21.7594 7.15059C21.8156 8.41621 21.8297 8.7959 21.8297 11.9975C21.8297 15.2037 21.8156 15.5834 21.7594 16.8443C21.7078 18.0162 21.5109 18.649 21.3469 19.0709C21.1313 19.6287 20.8687 20.0318 20.4516 20.449C20.0297 20.8709 19.6313 21.1287 19.0734 21.3443C18.6516 21.5084 18.0141 21.7053 16.8469 21.7568C15.5813 21.8131 15.2016 21.8271 12 21.8271C8.79375 21.8271 8.41406 21.8131 7.15313 21.7568C5.98125 21.7053 5.34844 21.5084 4.92656 21.3443C4.36875 21.1287 3.96563 20.8662 3.54844 20.449C3.12656 20.0271 2.86875 19.6287 2.65313 19.0709C2.48906 18.649 2.29219 18.0115 2.24063 16.8443C2.18438 15.5787 2.17031 15.199 2.17031 11.9975C2.17031 8.79121 2.18438 8.41152 2.24063 7.15059C2.29219 5.97871 2.48906 5.3459 2.65313 4.92402C2.86875 4.36621 3.13125 3.96309 3.54844 3.5459C3.97031 3.12402 4.36875 2.86621 4.92656 2.65059C5.34844 2.48652 5.98594 2.28965 7.15313 2.23809C8.41406 2.18184 8.79375 2.16777 12 2.16777ZM12 0.00683594C8.74219 0.00683594 8.33438 0.0208984 7.05469 0.0771484C5.77969 0.133398 4.90313 0.339648 4.14375 0.634961C3.35156 0.944336 2.68125 1.35215 2.01563 2.02246C1.34531 2.68809 0.9375 3.3584 0.628125 4.1459C0.332812 4.90996 0.126563 5.78184 0.0703125 7.05684C0.0140625 8.34121 0 8.74902 0 12.0068C0 15.2646 0.0140625 15.6725 0.0703125 16.9521C0.126563 18.2271 0.332812 19.1037 0.628125 19.8631C0.9375 20.6553 1.34531 21.3256 2.01563 21.9912C2.68125 22.6568 3.35156 23.0693 4.13906 23.374C4.90313 23.6693 5.775 23.8756 7.05 23.9318C8.32969 23.9881 8.7375 24.0021 11.9953 24.0021C15.2531 24.0021 15.6609 23.9881 16.9406 23.9318C18.2156 23.8756 19.0922 23.6693 19.8516 23.374C20.6391 23.0693 21.3094 22.6568 21.975 21.9912C22.6406 21.3256 23.0531 20.6553 23.3578 19.8678C23.6531 19.1037 23.8594 18.2318 23.9156 16.9568C23.9719 15.6771 23.9859 15.2693 23.9859 12.0115C23.9859 8.75371 23.9719 8.3459 23.9156 7.06621C23.8594 5.79121 23.6531 4.91465 23.3578 4.15527C23.0625 3.3584 22.6547 2.68809 21.9844 2.02246C21.3188 1.35684 20.6484 0.944336 19.8609 0.639648C19.0969 0.344336 18.225 0.138086 16.95 0.0818359C15.6656 0.0208984 15.2578 0.00683594 12 0.00683594Z" fill="#020080"/>
<path id="Vector_2" d="M12 5.84277C8.59688 5.84277 5.83594 8.60371 5.83594 12.0068C5.83594 15.41 8.59688 18.1709 12 18.1709C15.4031 18.1709 18.1641 15.41 18.1641 12.0068C18.1641 8.60371 15.4031 5.84277 12 5.84277ZM12 16.0053C9.79219 16.0053 8.00156 14.2146 8.00156 12.0068C8.00156 9.79902 9.79219 8.0084 12 8.0084C14.2078 8.0084 15.9984 9.79902 15.9984 12.0068C15.9984 14.2146 14.2078 16.0053 12 16.0053Z" fill="#020080"/>
<path id="Vector_3" d="M19.8469 5.59824C19.8469 6.39512 19.2 7.03731 18.4078 7.03731C17.6109 7.03731 16.9688 6.39043 16.9688 5.59824C16.9688 4.80137 17.6156 4.15918 18.4078 4.15918C19.2 4.15918 19.8469 4.80606 19.8469 5.59824Z" fill="#020080"/>
</g>
</g>
<defs>
<clipPath id="clip0_515_4429">
<rect width="24" height="24" fill="white" transform="translate(0 0.00683594)"/>
</clipPath>
</defs>
</svg>
