<svg width="154" height="32" viewBox="0 0 154 32" fill="none" xmlns="http://www.w3.org/2000/svg">
<g id="Group 13">
<g id="Group">
<path id="Vector" d="M16.0637 30.8083L15.9061 30.9659H15.0211L12.8752 30.6386L12.3539 30.7235L11.5052 29.8384L11.5901 28.2988L11.2628 28.0927V27.7653L11.4689 27.5592L10.7415 26.3832L10.9476 25.7771L9.65034 26.1044L8.64408 26.0195L5.64957 26.1408L5.24949 25.6195L4.80092 26.7954L4.15837 29.4262L4.00077 30.8447L0 30.481L1.53969 17.7513L3.32185 8.34342L3.72193 7.09469V5.39739L4.00077 5.07006V3.89408L4.40084 3.13029L4.64332 1.27539L10.2565 1.51786L10.4141 3.05755L10.7415 4.1123L11.1415 4.92458L11.3476 5.08218V6.74311L11.8326 7.55539L11.7477 8.4404L12.0266 8.40403L12.8752 12.5624L13.2389 13.0473L13.7602 16.1631L14.2815 18.1029L14.1603 18.4302L14.9726 21.4611L15.215 22.9159L15.2999 24.3344L15.7 25.0981V25.3042L15.4939 25.6316L15.6515 26.0802L15.894 28.6625L16.0516 30.8447L16.0637 30.8083ZM8.14702 8.82836H7.66208L6.60733 18.406H6.97103V18.6484L6.32849 20.0669L5.96478 21.3641L6.81343 21.2065L10.0504 21.0004L8.14702 8.84048V8.82836Z" fill="#020080"/>
<path id="Vector_2" d="M52.4222 30.1299L52.1434 30.4088L48.5427 30.0814H39.7774L38.0801 30.1663L37.8376 28.4326L37.5103 24.4682V21.0736L37.3527 20.2614L37.5588 18.164L37.3163 17.4366V13.5571L37.7164 12.1871V8.22269L37.2314 7.65289L37.5103 7.41042V0.621235H50.7977L51.5251 0.5L52.2525 1.19104L52.01 2.12455V8.30756L50.9553 8.14995L50.2279 7.78625L49.8642 7.82262L49.6581 7.49528L48.9307 7.70138H48.4821L47.6334 7.45891V7.18007L47.791 6.48903V4.6705H41.4868V6.81636L42.0566 12.7205L41.8141 13.2903V22.2981L41.608 22.5042L41.9354 22.8316L41.6929 23.5226V24.2136L41.9354 24.3349L41.8141 25.9473L43.1477 26.1534H48.3245V22.7588L52.4101 21.7041V30.142L52.4222 30.1299Z" fill="#020080"/>
<path id="Vector_3" d="M67.7344 31.3783L66.4008 25.8014H59.7328L58.7993 31.1722H55.041L57.987 9.43465L58.1931 9.34979L58.6781 6.59775L59.4419 3.96694L59.648 1.62709H63.5275L65.1884 1.50586L65.4673 2.39088L65.4309 3.27589L65.6734 3.48199L66.522 6.47651L67.5767 11.1198L69.7954 23.0373L71.129 31.354H67.7344V31.3783ZM65.5521 21.0369L62.7637 8.35566V11.2289L60.8239 21.049H65.5521V21.0369Z" fill="#020080"/>
<path id="Vector_4" d="M89.9936 18.8187L90.1512 18.9763L89.9451 19.5825L90.0663 19.7037L89.8238 23.7893L90.1027 24.2379L89.8238 24.3591V24.8077L90.1512 24.9653L89.8238 25.3654L89.6178 26.1777L89.4601 30.7846H84.8532L84.6107 30.2997L84.732 29.936L83.2408 26.8202L81.1798 22.0072L78.9612 16.2242L78.1125 13.5207V16.3455L78.355 16.9153L78.1489 18.0913L78.4762 20.516L78.4398 20.8433L78.5611 21.1221L78.2337 30.2875L77.5427 30.4936H75.9666L75.7605 30.2875L75.4332 30.4088H74.5482L73.942 30.2875L73.251 11.1808V5.51915L73.7359 1.03344L74.7422 1.23954H76.8032L77.4942 0.99707L80.5251 7.70139L80.7676 7.85899L80.6827 8.0166L81.1313 8.98648L81.1676 9.47142L82.5376 12.3447L84.7562 18.7702L84.9623 18.9763L84.2349 2.08819L84.5986 1.11831H88.8418L89.3268 6.17382V7.3498L89.6541 10.3807L89.8117 10.5383V10.9384L89.5693 11.0596L89.9693 18.8187H89.9936Z" fill="#020080"/>
<path id="Vector_5" d="M98.2736 1.32422V27.2201L97.9099 31.4997L93.0241 30.8572V1.84553L92.6604 1.72429L93.4242 1.32422H98.2736Z" fill="#020080"/>
<path id="Vector_6" d="M117.174 19.2184L117.053 19.376V20.8672L116.931 21.631L117.174 21.9584V22.4433L117.016 22.4069L116.931 23.2919L117.089 23.4496L116.847 25.6318V28.0565L116.568 28.4566V30.9177L116.325 31.439H113.209L112.518 31.1965L112.07 30.9177V19.8125L112.397 14.9631L111.512 17.8727L111.185 19.7276L110.579 21.4613L110.373 23.5223L109.73 23.8496L109.124 23.692L108.554 21.3886L105.972 14.2357L106.299 20.6975V27.1594L105.899 30.8328L105.741 31.1965H102.31L101.583 28.893V2.99715L102.189 1.45746L102.517 1.21499L105.305 1.09375L108.615 8.40425L109.257 10.829V10.5501L109.585 9.78633L110.639 4.77931L111.088 4.33074L112.179 1.21499H116.095L116.907 7.9193H117.028V8.1254L116.822 8.3315L117.065 9.14378V13.1082L117.307 13.5567L117.028 14.2478L117.186 19.2184H117.174Z" fill="#020080"/>
<path id="Vector_7" d="M132.208 31.3783L130.874 25.8014H124.206L123.273 31.1722H119.514L122.46 9.43465L122.667 9.34979L123.151 6.59775L123.915 3.96694L124.121 1.62709H128.001L129.662 1.50586L129.941 2.39088L129.904 3.27589L130.147 3.48199L130.995 6.47651L132.05 11.1198L134.269 23.0373L135.602 31.354H132.208V31.3783ZM130.026 21.0369L127.237 8.35566V11.2289L125.297 21.049H130.026V21.0369Z" fill="#020080"/>
<path id="Vector_8" d="M153.29 31.1361H137.008V6.65867L136.802 2.2942L136.644 1.40918H141.251L141.009 3.50655V4.84014L141.651 4.87651V14.5753L141.979 14.939V22.6981L141.821 25.2441L141.615 26.1776L141.894 26.3837L141.93 26.6261L147.907 26.3837L147.992 26.02L148.234 26.0563L148.44 26.2624H153.29V31.1482V31.1361Z" fill="#020080"/>
</g>
<path id="Vector_9" d="M34.2848 7.33758V1.84562L34.4061 1.39705L34.0424 0.912109H19.094L19.0092 1.51829V5.84639L18.8516 9.51982L19.3365 15.7877V29.2812L19.2153 30.5784H23.4949L23.3736 29.4873V27.0262L23.7737 25.535L23.41 25.0137L23.7737 24.7712L23.5312 23.4013L23.6525 23.0376V22.589L23.41 21.704L23.6525 21.1342L23.2888 16.3333L23.7373 16.1272L24.3799 16.2484H25.6771L26.2469 16.1272L30.575 30.7966H34.297L32.927 24.0438L33.0482 23.5589L31.46 16.1999L34.3818 15.9695V8.21048L34.5394 7.51944L34.297 7.36183L34.2848 7.33758ZM26.4167 3.62778C26.5136 3.28833 26.6228 3.03373 26.7925 2.77914C26.9865 2.5003 27.1683 2.31844 27.4108 2.22145C27.5199 2.17296 27.9442 2.57304 28.0412 2.57304C28.5625 2.59728 28.7444 2.6579 28.9868 3.45805C29.0353 3.62778 29.1081 4.03998 29.1202 4.22184C29.1444 4.69466 29.1081 5.14322 28.9868 5.57967C28.8292 6.1616 28.5625 6.61017 28.2231 6.86477C28.0655 6.986 27.9927 7.01025 27.8109 7.04662C27.6654 7.07087 27.6533 7.07087 27.5441 7.05874C27.4835 7.05874 27.3987 7.0345 27.3623 7.02238C26.9865 6.88902 26.9258 6.79203 26.7076 6.19797C26.6591 6.05249 26.2954 5.24021 26.2833 5.05836C26.2469 4.52493 26.2833 4.07636 26.4167 3.61566V3.62778ZM23.1069 3.17921C23.2039 3.08222 23.3373 2.98524 23.4585 2.94887C23.5797 2.9125 23.7252 2.90037 23.8707 2.91249C24.3799 2.98523 24.9376 3.4823 25.3255 4.19759C25.5195 4.5613 25.4225 4.81589 25.4953 5.22809C25.6044 5.7494 25.8347 6.35558 25.7256 6.76778C25.6044 7.2406 25.3377 7.55581 24.9861 7.6528C24.8406 7.68917 24.6102 7.68917 24.4526 7.62855C24.2708 7.56793 24.0768 7.45882 23.9192 7.32546C23.4706 6.94963 23.1069 6.37983 22.8766 5.66454C22.816 5.47056 22.8402 4.925 22.8281 4.74315C22.7796 4.02786 22.7917 3.4823 23.1069 3.16709V3.17921ZM21.9794 10.1502C21.4945 9.81079 21.1065 9.27735 20.8519 8.6348C20.8035 8.50145 20.7913 8.45295 20.7428 8.18623C20.6822 7.8589 20.5246 7.78616 20.5246 7.30122C20.5246 6.81627 20.9368 6.6223 21.3005 6.45257C21.4096 6.40407 21.6157 6.35558 21.7491 6.35558C22.3431 6.3677 23.5434 7.78616 23.6646 8.14986C23.7858 8.51357 24.0889 9.89565 23.9071 9.96839C23.7252 10.0411 23.2888 10.4533 22.9857 10.4776C22.6462 10.5018 22.3189 10.3927 21.9673 10.1502H21.9794ZM31.2054 12.4052C31.1448 12.5022 30.963 12.7326 30.8539 12.8417C30.6356 13.072 30.3689 13.2417 30.0901 13.3509C29.9567 13.3994 29.6779 13.46 29.5324 13.4721C29.2899 13.4721 28.8899 13.7388 28.5261 13.6176C28.1624 13.4963 27.7139 13.1933 27.4835 13.2417C27.3138 13.2781 27.3138 13.2781 27.1441 13.3509C27.0471 13.3872 26.8046 13.4963 26.6227 13.5812C25.9075 13.9085 25.8711 14.1389 25.4589 14.2601C25.2528 14.3207 24.8406 14.4056 24.6709 14.4177C24.3072 14.442 23.9919 14.4056 23.7131 14.2965C23.604 14.248 23.4221 14.1631 23.3615 14.1025C23.0463 13.8479 23.0221 13.1933 23.0584 12.7326C23.0948 12.2719 23.3615 11.6172 23.6161 11.0838C23.9434 10.3927 24.7557 9.47133 24.9012 9.18036C25.0467 8.8894 25.8105 8.38021 26.2348 8.23473C26.3439 8.19836 26.5985 8.14986 26.7076 8.13774C27.0956 8.10137 28.1988 8.39233 28.32 8.51357C28.4413 8.6348 29.7506 9.42283 30.3932 10.126C30.8902 10.6837 31.1812 11.1444 31.3146 11.5929C31.4115 11.9203 31.3873 12.187 31.2539 12.4052H31.2054ZM31.4358 8.2711C31.2176 8.61056 30.9751 9.05913 30.6841 9.19249C30.5871 9.22886 30.3568 9.27735 30.2598 9.26523C29.8355 9.24098 29.4597 8.92577 29.2536 8.40446C29.1687 8.21048 28.9383 8.02863 28.902 7.78616C28.8414 7.3982 29.0353 7.09512 29.1081 6.69504C29.2536 5.87064 29.5809 5.11898 30.1143 4.87651C30.2356 4.82801 30.5629 4.86438 30.6841 4.87651C31.0842 4.88863 31.4479 5.16747 31.6661 5.62817C32.0662 6.46469 31.9814 7.45882 31.4479 8.2711H31.4358Z" fill="#020080"/>
</g>
</svg>
