<svg width="45" height="58" viewBox="0 0 45 58" fill="none" xmlns="http://www.w3.org/2000/svg">
<path id="Vector" d="M2.39812 57.2134V30.1288L1.62226 29.3529C1.10502 28.7887 0.705329 28.1539 0.423198 27.4485C0.141066 26.7432 0 26.0379 0 25.3326C0 24.5802 0.141066 23.8636 0.423198 23.1827C0.705329 22.5 1.10502 21.9 1.62226 21.3827L10.8621 12.0724H22.1473L33.4326 0.787109L39.2163 6.57081C41.1912 8.49871 42.6489 10.673 43.5893 13.0937C44.5298 15.5163 45 17.9971 45 20.5363C45 23.0755 44.5298 25.5442 43.5893 27.9423C42.6489 30.3404 41.1912 32.5269 39.2163 34.5018L33.4326 40.2855V57.2134H2.39812ZM8.04075 51.5708H27.79V37.958L35.1959 30.552C36.5596 29.1884 37.594 27.6244 38.2994 25.8601C39.0047 24.0978 39.3574 22.3232 39.3574 20.5363C39.3574 18.7495 39.0047 16.9862 38.2994 15.2464C37.594 13.5065 36.5596 11.9548 35.1959 10.5912L33.4326 8.75733L24.4749 17.715H13.1897L11.5674 19.3373L16.2931 24.063C17.6567 25.4266 18.6912 26.9783 19.3965 28.7181C20.1019 30.458 20.4545 32.2213 20.4545 34.0081C20.4545 35.7949 20.1019 37.5705 19.3965 39.3348C18.6912 41.0971 17.6567 42.6601 16.2931 44.0238L8.04075 35.7714V51.5708Z" fill="#020080"/>
</svg>
