<svg width="48" height="46" viewBox="0 0 48 46" fill="none" xmlns="http://www.w3.org/2000/svg">
<path d="M5.87903 21.8247C4.2329 21.8247 2.84153 21.2563 1.70492 20.1197C0.568306 18.9831 0 17.5918 0 15.9456C0 14.2995 0.568306 12.9081 1.70492 11.7715C2.84153 10.6349 4.2329 10.0666 5.87903 10.0666C7.52516 10.0666 8.91653 10.6349 10.0531 11.7715C11.1898 12.9081 11.7581 14.2995 11.7581 15.9456C11.7581 17.5918 11.1898 18.9831 10.0531 20.1197C8.91653 21.2563 7.52516 21.8247 5.87903 21.8247ZM16.4613 12.4182C14.8152 12.4182 13.4238 11.8499 12.2872 10.7133C11.1506 9.57668 10.5823 8.18531 10.5823 6.53918C10.5823 4.89306 11.1506 3.50169 12.2872 2.36507C13.4238 1.22846 14.8152 0.660156 16.4613 0.660156C18.1074 0.660156 19.4988 1.22846 20.6354 2.36507C21.772 3.50169 22.3403 4.89306 22.3403 6.53918C22.3403 8.18531 21.772 9.57668 20.6354 10.7133C19.4988 11.8499 18.1074 12.4182 16.4613 12.4182ZM30.5709 12.4182C28.9248 12.4182 27.5335 11.8499 26.3968 10.7133C25.2602 9.57668 24.6919 8.18531 24.6919 6.53918C24.6919 4.89306 25.2602 3.50169 26.3968 2.36507C27.5335 1.22846 28.9248 0.660156 30.5709 0.660156C32.2171 0.660156 33.6084 1.22846 34.7451 2.36507C35.8817 3.50169 36.45 4.89306 36.45 6.53918C36.45 8.18531 35.8817 9.57668 34.7451 10.7133C33.6084 11.8499 32.2171 12.4182 30.5709 12.4182ZM41.1532 21.8247C39.5071 21.8247 38.1157 21.2563 36.9791 20.1197C35.8425 18.9831 35.2742 17.5918 35.2742 15.9456C35.2742 14.2995 35.8425 12.9081 36.9791 11.7715C38.1157 10.6349 39.5071 10.0666 41.1532 10.0666C42.7993 10.0666 44.1907 10.6349 45.3273 11.7715C46.4639 12.9081 47.0322 14.2995 47.0322 15.9456C47.0322 17.5918 46.4639 18.9831 45.3273 20.1197C44.1907 21.2563 42.7993 21.8247 41.1532 21.8247ZM10.935 45.3408C9.17128 45.3408 7.69134 44.6651 6.49515 43.3137C5.29896 41.9623 4.70165 40.3648 4.70322 38.5211C4.70322 36.483 5.3993 34.6997 6.79145 33.1712C8.18361 31.6426 9.56479 30.1337 10.935 28.6443C12.0716 27.4293 13.0514 26.1069 13.8745 24.6772C14.6976 23.2474 15.6774 21.9046 16.814 20.6489C17.6763 19.6298 18.6757 18.7872 19.8123 18.1209C20.9489 17.4546 22.1835 17.1214 23.5161 17.1214C24.8487 17.1214 26.0833 17.435 27.2199 18.0621C28.3565 18.6892 29.3559 19.5122 30.2182 20.5313C31.3156 21.7855 32.2861 23.1376 33.1295 24.5878C33.9729 26.038 34.9622 27.3901 36.0972 28.6443C37.469 30.1337 38.8502 31.6426 40.2408 33.1712C41.6314 34.6997 42.3274 36.483 42.329 38.5211C42.329 40.3632 41.7309 41.9607 40.5347 43.3137C39.3385 44.6666 37.8594 45.3423 36.0972 45.3408C33.9808 45.3408 31.8839 45.1644 29.8067 44.8117C27.7294 44.4589 25.6326 44.2825 23.5161 44.2825C21.3997 44.2825 19.3028 44.4589 17.2256 44.8117C15.1483 45.1644 13.0514 45.3408 10.935 45.3408Z" fill="#020080"/>
</svg>
