<svg width="52" height="60" viewBox="0 0 52 60" fill="none" xmlns="http://www.w3.org/2000/svg">
<path d="M29.073 0.930664H22.7023C21.4518 0.930246 20.2244 1.26816 19.1504 1.90858C18.0763 2.54901 17.1955 3.46809 16.6013 4.56842V26.0609H35.311V4.87762C34.7505 3.69747 33.867 2.70032 32.763 2.00175C31.6589 1.30318 30.3795 0.931805 29.073 0.930664ZM30.4634 19.3374H28.4505V21.3503C28.4505 22.0272 28.1816 22.6764 27.7029 23.1551C27.2242 23.6338 26.575 23.9027 25.898 23.9027C25.2211 23.9027 24.5719 23.6338 24.0932 23.1551C23.6145 22.6764 23.3456 22.0272 23.3456 21.3503V19.3374H21.3327C19.9631 19.3374 18.8466 18.2624 18.7844 16.9073C18.8084 16.2455 19.0867 15.6184 19.5613 15.1565C20.0359 14.6946 20.6704 14.4335 21.3327 14.4275H23.3456V12.3731C23.3456 10.9309 24.4869 9.76671 25.898 9.76671C27.3091 9.76671 28.4505 10.9309 28.4505 12.3731V14.4275H30.4634C31.833 14.4275 32.9494 15.544 33.0138 16.9073C32.9823 17.5625 32.6998 18.1804 32.225 18.6328C31.7501 19.0853 31.1193 19.3376 30.4634 19.3374ZM47.293 26.0609H37.3861V5.35284C43.0804 6.94034 47.2764 12.2631 47.293 18.5758V26.0609ZM14.5261 26.0609V5.30926C8.74059 6.84073 4.48235 12.205 4.48235 18.5758V26.0567L14.5261 26.0609ZM4.33709 28.0323H47.3967C49.8039 28.0323 51.7338 29.9622 51.7338 32.3694C51.7338 34.7558 49.7832 36.7065 47.3967 36.7065H43.2713V40.421C43.2713 44.3389 41.9764 47.9539 39.7892 50.8632C40.0569 51.7908 39.8265 52.8326 39.0981 53.5651C37.3686 55.3116 35.3096 56.6973 33.0405 57.642C30.7714 58.5867 28.3373 59.0715 25.8794 59.0684C23.4234 59.0674 20.9918 58.5815 18.7241 57.6385C16.4565 56.6955 14.3973 55.3141 12.6647 53.5734C12.3162 53.2256 12.0674 52.7907 11.9444 52.314C11.8214 51.8372 11.8286 51.3362 11.9654 50.8632C9.69988 47.8538 8.47739 44.1878 8.48327 40.421V36.7065H4.33709C1.95065 36.7065 0 34.7558 0 32.3694C0 29.9829 1.95065 28.0323 4.33709 28.0323ZM40.2748 40.421V36.7065H11.4798V40.421C11.4798 43.5919 12.5049 46.522 14.2418 48.9001C15.0636 48.7901 15.9227 49.0516 16.5536 49.6825C17.7753 50.9119 19.228 51.8878 20.828 52.5541C22.4281 53.2204 24.144 53.564 25.8773 53.5651C29.5171 53.5651 32.8062 52.0917 35.1948 49.6887C35.8235 49.0537 36.6889 48.7901 37.5127 48.9001C39.311 46.4392 40.2778 43.469 40.2727 40.421" fill="#020080"/>
</svg>
