<svg width="43" height="44" viewBox="0 0 43 44" fill="none" xmlns="http://www.w3.org/2000/svg">
<path d="M17.67 0.891602C13.1913 0.891602 8.896 2.67077 5.72906 5.83771C2.56213 9.00465 0.782959 13.2999 0.782959 17.7787C0.782959 22.2574 2.56213 26.5527 5.72906 29.7196C8.896 32.8866 13.1913 34.6657 17.67 34.6657C22.1487 34.6657 26.444 32.8866 29.611 29.7196C32.7779 26.5527 34.5571 22.2574 34.5571 17.7787C34.5571 13.2999 32.7779 9.00465 29.611 5.83771C26.444 2.67077 22.1487 0.891602 17.67 0.891602Z" fill="#020080"/>
<path fill-rule="evenodd" clip-rule="evenodd" d="M42.3819 42.4903C41.9861 42.8861 41.4493 43.1084 40.8895 43.1084C40.3298 43.1084 39.793 42.8861 39.3971 42.4903L32.0091 35.1022C31.6245 34.7041 31.4118 34.1709 31.4166 33.6174C31.4214 33.064 31.6434 32.5345 32.0348 32.1432C32.4261 31.7518 32.9556 31.5298 33.509 31.525C34.0625 31.5202 34.5957 31.7329 34.9938 32.1175L42.3819 39.5055C42.7777 39.9014 43 40.4382 43 40.9979C43 41.5577 42.7777 42.0945 42.3819 42.4903Z" fill="#020080"/>
</svg>
