<svg width="43" height="44" viewBox="0 0 43 44" fill="none" xmlns="http://www.w3.org/2000/svg">
<path d="M17.67 0.891602C13.1913 0.891602 8.896 2.67077 5.72906 5.83771C2.56213 9.00465 0.782959 13.2999 0.782959 17.7787C0.782959 22.2574 2.56213 26.5527 5.72906 29.7196C8.896 32.8866 13.1913 34.6657 17.67 34.6657C22.1487 34.6657 26.444 32.8866 29.611 29.7196C32.7779 26.5527 34.5571 22.2574 34.5571 17.7787C34.5571 13.2999 32.7779 9.00465 29.611 5.83771C26.444 2.67077 22.1487 0.891602 17.67 0.891602Z" fill="#020080"/>
<path fill-rule="evenodd" clip-rule="evenodd" d="M42.3819 42.4903C41.986 42.886 41.4492 43.1083 40.8895 43.1083C40.3297 43.1083 39.7929 42.886 39.3971 42.4903L32.009 35.1022C31.6245 34.7041 31.4117 34.1708 31.4165 33.6174C31.4213 33.0639 31.6433 32.5345 32.0347 32.1431C32.4261 31.7517 32.9555 31.5297 33.509 31.5249C34.0624 31.5201 34.5957 31.7329 34.9938 32.1174L42.3819 39.5055C42.7776 39.9013 42.9999 40.4381 42.9999 40.9979C42.9999 41.5576 42.7776 42.0944 42.3819 42.4903Z" fill="#020080"/>
<circle cx="17.8223" cy="17.4734" r="12.0007" fill="white"/>
</svg>
