<svg width="48" height="48" viewBox="0 0 48 48" fill="none" xmlns="http://www.w3.org/2000/svg">
<path id="Vector" d="M39.5475 46.6214L30.1613 37.3473C28.6594 38.2663 27.0742 38.9564 25.4055 39.4176C23.7369 39.8755 21.943 40.1044 20.0241 40.1044C14.3506 40.1044 9.59486 38.1828 5.75692 34.3394C1.91897 30.4961 0 25.7337 0 20.0522C0 14.3708 1.91897 9.60835 5.75692 5.76501C9.59486 1.92167 14.3506 0 20.0241 0C25.6976 0 30.4533 1.92167 34.2912 5.76501C38.1292 9.60835 40.0481 14.3708 40.0481 20.0522C40.0481 21.9739 39.8195 23.7702 39.3623 25.4413C38.9018 27.1123 38.2126 28.6997 37.2948 30.2036L46.556 39.6031C47.4737 40.5222 47.9543 41.6702 47.9977 43.0471C48.0377 44.4274 47.5572 45.6188 46.556 46.6214C45.6382 47.5405 44.4701 48 43.0518 48C41.6334 48 40.4653 47.5405 39.5475 46.6214ZM20.0241 30.0783C22.8608 30.0783 25.2387 29.1175 27.1576 27.1958C29.0766 25.2742 30.0361 22.8929 30.0361 20.0522C30.0361 17.2115 29.0766 14.8303 27.1576 12.9086C25.2387 10.9869 22.8608 10.0261 20.0241 10.0261C17.1873 10.0261 14.8095 10.9869 12.8905 12.9086C10.9715 14.8303 10.012 17.2115 10.012 20.0522C10.012 22.8929 10.9715 25.2742 12.8905 27.1958C14.8095 29.1175 17.1873 30.0783 20.0241 30.0783Z" fill="#020080"/>
</svg>
