<svg width="55" height="46" viewBox="0 0 55 46" fill="none" xmlns="http://www.w3.org/2000/svg">
<path d="M11.975 45.6354C10.5502 45.6354 9.33088 45.1285 8.31711 44.1147C7.30333 43.101 6.79558 41.8808 6.79385 40.4543V21.3488L4.20329 23.3565C3.59882 23.7883 2.95118 23.961 2.26036 23.8746C1.56954 23.7883 1.00825 23.4429 0.57649 22.8384C0.144729 22.2339 -0.01675 21.5863 0.0920538 20.8955C0.200858 20.2047 0.535041 19.6434 1.0946 19.2116L24.3449 1.40146C24.8199 1.05605 25.3276 0.796995 25.8682 0.624291C26.4088 0.451586 26.9588 0.365234 27.5184 0.365234C28.078 0.365234 28.6289 0.451586 29.1712 0.624291C29.7135 0.796995 30.2204 1.05605 30.6918 1.40146L54.007 19.2116C54.5682 19.6434 54.8921 20.2047 54.9784 20.8955C55.0648 21.5863 54.8921 22.2339 54.4603 22.8384C54.0285 23.3997 53.4673 23.7235 52.7764 23.8099C52.0856 23.8962 51.4596 23.7235 50.8983 23.2918L48.2429 21.3488V40.4543C48.2429 41.8791 47.736 43.0992 46.7223 44.1147C45.7085 45.1302 44.4883 45.6371 43.0618 45.6354H11.975Z" fill="#020080"/>
<path d="M14.7184 24.8975H19.6228C19.6228 24.8975 19.3803 31.9337 27.1136 32.9393C34.847 33.9449 35.2358 24.8975 35.2358 24.8975H40.3412C40.3216 29.4861 37.726 38.5862 27.5004 38.2767C17.2748 37.9673 14.7184 29.2283 14.7184 24.8975Z" fill="white"/>
</svg>
