<svg width="54" height="46" viewBox="0 0 54 46" fill="none" xmlns="http://www.w3.org/2000/svg">
<path id="Vector" d="M26.9894 36.8734C27.3289 36.8734 27.6365 36.8197 27.9124 36.7124C28.1882 36.6051 28.4534 36.4442 28.7081 36.2296C30.066 34.985 31.3603 33.7618 32.591 32.5601C33.8216 31.3584 34.8931 30.1781 35.8055 29.0193C36.7179 27.8605 37.4499 26.7339 38.0016 25.6395C38.5532 24.5451 38.8291 23.4828 38.8291 22.4528C38.8291 20.5644 38.1925 18.9979 36.9195 17.7532C35.6464 16.5086 34.1187 15.8863 32.3363 15.8863C31.233 15.8863 30.2251 16.1116 29.3128 16.5622C28.4004 17.0129 27.6259 17.603 26.9894 18.3326C26.3528 17.603 25.5572 17.0129 24.6024 16.5622C23.6475 16.1116 22.6609 15.8863 21.6424 15.8863C19.8601 15.8863 18.3324 16.5086 17.0593 17.7532C15.7862 18.9979 15.1497 20.5644 15.1497 22.4528C15.1497 23.4828 15.4255 24.5451 15.9772 25.6395C16.5289 26.7339 17.2609 27.8605 18.1733 29.0193C19.0857 30.1781 20.1572 31.3584 21.3878 32.5601C22.6185 33.7618 23.9128 34.985 25.2707 36.2296C25.5253 36.4442 25.7906 36.6051 26.0664 36.7124C26.3422 36.8197 26.6499 36.8734 26.9894 36.8734ZM11.7124 45.5C10.312 45.5 9.11316 44.9957 8.11591 43.9871C7.11866 42.9785 6.62004 41.7661 6.62004 40.3498V21.3584L4.07387 23.3541C3.47976 23.7833 2.84322 23.9549 2.16424 23.8691C1.48527 23.7833 0.933595 23.4399 0.509234 22.8391C0.0848723 22.2382 -0.0742633 21.5944 0.0318271 20.9077C0.137917 20.221 0.466798 19.6631 1.01847 19.2339L23.8703 1.53004C24.3371 1.1867 24.8358 0.929185 25.3662 0.757511C25.8967 0.585837 26.4377 0.5 26.9894 0.5C27.5411 0.5 28.0821 0.585837 28.6126 0.757511C29.143 0.929185 29.6417 1.1867 30.1084 1.53004L53.024 19.2339C53.5756 19.6631 53.8939 20.221 53.9788 20.9077C54.0637 21.5944 53.8939 22.2382 53.4696 22.8391C53.0452 23.397 52.4935 23.7189 51.8145 23.8047C51.1356 23.8906 50.5202 23.7189 49.9686 23.2897L47.3587 21.3584V40.3498C47.3587 41.7661 46.8601 42.9785 45.8629 43.9871C44.8656 44.9957 43.6668 45.5 42.2664 45.5H11.7124Z" fill="#020080"/>
</svg>
