<svg width="41" height="46" viewBox="0 0 41 46" fill="none" xmlns="http://www.w3.org/2000/svg">
<path id="Vector" d="M16.6562 28.7857V31.3571C16.6562 32.4286 17.0304 33.3389 17.7786 34.088C18.5252 34.8389 19.4323 35.2143 20.5 35.2143C21.5677 35.2143 22.4748 34.8389 23.2214 34.088C23.9696 33.3389 24.3438 32.4286 24.3438 31.3571V28.7857H26.9062C27.974 28.7857 28.8811 28.4103 29.6276 27.6594C30.3759 26.9103 30.75 26 30.75 24.9286C30.75 23.8571 30.3759 22.9469 29.6276 22.1977C28.8811 21.4469 27.974 21.0714 26.9062 21.0714H24.3438V18.5C24.3438 17.4286 23.9696 16.5183 23.2214 15.7691C22.4748 15.0183 21.5677 14.6429 20.5 14.6429C19.4323 14.6429 18.5252 15.0183 17.7786 15.7691C17.0304 16.5183 16.6562 17.4286 16.6562 18.5V21.0714H14.0938C13.026 21.0714 12.1189 21.4469 11.3724 22.1977C10.6241 22.9469 10.25 23.8571 10.25 24.9286C10.25 26 10.6241 26.9103 11.3724 27.6594C12.1189 28.4103 13.026 28.7857 14.0938 28.7857H16.6562ZM5.125 45.5C3.71563 45.5 2.50954 44.9969 1.50675 43.9906C0.50225 42.9826 0 41.7714 0 40.3571V17.2143C0 16.4 0.181937 15.6286 0.545812 14.9C0.907979 14.1714 1.40938 13.5714 2.05 13.1L17.425 1.52857C18.3219 0.842857 19.3469 0.5 20.5 0.5C21.6531 0.5 22.6781 0.842857 23.575 1.52857L38.95 13.1C39.5906 13.5714 40.0929 14.1714 40.4567 14.9C40.8189 15.6286 41 16.4 41 17.2143V40.3571C41 41.7714 40.4986 42.9826 39.4958 43.9906C38.4913 44.9969 37.2844 45.5 35.875 45.5H5.125Z" fill="#020080"/>
</svg>
