<svg width="53" height="54" viewBox="0 0 53 54" fill="none" xmlns="http://www.w3.org/2000/svg">
<g id="Group">
<g id="Group_2">
<path id="Vector" d="M10.3494 24.3003H0.319824V54.0003H10.3494V24.3003Z" fill="#020080"/>
<path id="Vector_2" d="M37.9305 3.375C39.5603 1.323 42.0928 0 44.7004 0C49.3391 0 52.9748 3.915 52.9748 8.91C52.9748 15.039 45.6783 22.14 37.9305 29.7C30.1826 22.113 22.8861 15.012 22.8861 8.91C22.8861 3.915 26.5218 0 31.1605 0C33.7682 0 36.3007 1.323 37.9305 3.375Z" fill="#020080"/>
<path id="Vector_3" d="M47.9601 40.5003H30.4084L25.1679 38.5293L25.9954 35.9913L30.4084 37.8003H37.4792C39.109 37.8003 40.438 36.3693 40.438 34.6143C40.438 33.2913 39.6607 32.1033 38.5073 31.6173L20.3036 24.3003H15.364V48.6543L32.9158 54.0003L53 45.9003C52.9749 42.9303 50.7434 40.5003 47.9601 40.5003Z" fill="#020080"/>
</g>
</g>
</svg>
