<svg width="22" height="25" viewBox="0 0 22 25" fill="none" xmlns="http://www.w3.org/2000/svg">
<path id="Vector" d="M21.844 22.4633L14.019 10.1658L21.7403 1.67201C21.9149 1.47517 22.0049 1.21742 21.9907 0.954664C21.9766 0.691905 21.8595 0.445306 21.6647 0.268332C21.47 0.0913575 21.2134 -0.00172808 20.9504 0.00925648C20.6875 0.020241 20.4395 0.13441 20.2603 0.327012L12.9053 8.41701L7.844 0.463262C7.75375 0.321205 7.6291 0.204225 7.48161 0.123159C7.33412 0.0420931 7.16855 -0.000436118 7.00025 -0.000488163H1.00025C0.820953 -0.000575361 0.644928 0.0475459 0.490611 0.138837C0.336293 0.230127 0.209358 0.361229 0.123098 0.518414C0.0368378 0.675599 -0.00557429 0.853086 0.000302358 1.03229C0.00617901 1.21149 0.0601283 1.38582 0.156501 1.53701L7.9815 13.8333L0.260252 22.3333C0.170085 22.4301 0.100039 22.5439 0.0541735 22.668C0.00830813 22.7922 -0.0124648 22.9242 -0.0069408 23.0564C-0.00141675 23.1886 0.0302945 23.3184 0.0863543 23.4383C0.142414 23.5581 0.221707 23.6657 0.319639 23.7547C0.417571 23.8437 0.532194 23.9124 0.656863 23.9567C0.781532 24.0011 0.913768 24.0203 1.04591 24.0132C1.17805 24.0061 1.30746 23.9728 1.42665 23.9153C1.54584 23.8578 1.65243 23.7773 1.74025 23.6783L9.09525 15.5883L14.1565 23.542C14.2475 23.6829 14.3725 23.7987 14.5199 23.8786C14.6673 23.9586 14.8325 24.0001 15.0003 23.9995H21.0003C21.1794 23.9995 21.3552 23.9513 21.5093 23.8601C21.6634 23.7688 21.7902 23.6379 21.8764 23.4809C21.9627 23.3239 22.0051 23.1467 21.9994 22.9676C21.9937 22.7886 21.94 22.6144 21.844 22.4633ZM15.549 21.9995L2.8215 1.99951H6.4465L19.179 21.9995H15.549Z" fill="#020080"/>
</svg>
